<svg xmlns="http://www.w3.org/2000/svg" width="23" height="23" viewBox="0 0 23 23">
  <g id="Group_184" data-name="Group 184" transform="translate(0 -0.301)">
    <circle id="Ellipse_15" data-name="Ellipse 15" cx="11.5" cy="11.5" r="11.5" transform="translate(0 0.301)" fill="#3d9635"/>
    <g id="Group_183" data-name="Group 183" transform="translate(3.306 5.566)">
      <path id="Path_336" data-name="Path 336" d="M4.7,8.963c-.039.6-.088,1.667.364,1.775.55.057.247-1.049.445-1.25.038-.1.108-.1.113.025v.942a.437.437,0,0,0,.314.453c.146-.011.24-.006.3.154q.036.81.068,1.621s.336.113.352-.911a10.728,10.728,0,0,1-.031-1.219c0-.114.131-.124.224-.062.146.114.208.252.431.2.341-.108.543-.291.549-.587a2.835,2.835,0,0,0-.153-.839c.015-.052-.068-.18-.05-.232.06.108.152.1.173,0a.845.845,0,0,0-.291-.51c-.121-.119-.3-.093-.364.159a1.488,1.488,0,0,0,.28.9.992.992,0,0,1,.069.453.2.2,0,0,1-.278-.062s-.274-.232-.274-.277a1.228,1.228,0,0,0-.023-.728.99.99,0,0,0-.178-.389c-.067-.087-.159-.087-.2,0a1.517,1.517,0,0,0,.022.958c.06.205.158.334.114.334-.038.119-.115.087-.17-.047a3.684,3.684,0,0,1-.094-.88c-.025-.232-.053-.728-.188-.854-.082-.124-.206-.062-.25.057a4.941,4.941,0,0,0,.014.668,8.019,8.019,0,0,1,.168,1.081c.012.51-.261.218-.249-.036a2.6,2.6,0,0,0-.009-.973c-.044-.133-.1-.165-.207-.138-.087-.011-.308.262-.37.715a4.073,4.073,0,0,0-.073.443c-.032.232-.168.4-.264-.036-.084-.314-.134-1.086-.272-.906" transform="translate(-4.576 -7.746)" fill="#fff"/>
      <path id="Path_337" data-name="Path 337" d="M6.224,12.611c-.486.273-.958.52-1.435.777a1.522,1.522,0,0,1,1.136-1.034c.291.01.218.129.3.257" transform="translate(-4.608 -8.924)" fill="#fff"/>
      <path id="Path_338" data-name="Path 338" d="M8.312,8.028a.409.409,0,0,0-.092.031.305.305,0,0,0-.192.376c.138.947.226,1.667.364,2.609.024.114-.06.258-.166.248-.181-.139-.226-.422-.535-.407a.644.644,0,0,0-.51.54,1.544,1.544,0,0,0,0,.617.417.417,0,0,0,.51.146c.135-.062.248-.218.3-.18.03.062,0,.556-.639.931-.392.2-.7.247-.874-.114-.1-.226.008-1.081-.246-.885-.756,2.192,1.769,2.5,2.052.092.018-.067.073-.134.114-.118.019.01.032.036.036.087-.058,2.176-1.952,2.321-2.273,1.641a2.287,2.287,0,0,1-.114-.736.422.422,0,0,0-.077-.242c-.077-.061-.18.108-.2.4a2.934,2.934,0,0,0-.023.524c.1,1.729,2.54.988,2.938-.437a5.471,5.471,0,0,0,.066-1.362h.008l.006-.005c.247.291.583.036.659-.062a.1.1,0,0,1,.169-.02.371.371,0,0,0,.588-.185,7.275,7.275,0,0,0,.082-.818.655.655,0,0,0-.263.123.084.084,0,0,0-.02.042c-.009.073-.02.154-.031.232a.208.208,0,0,1-.005.02.056.056,0,0,1-.024.021.079.079,0,0,1-.124-.062c-.058-.291-.3-.34-.444.123-.1.093-.277.108-.3-.02.025-.314-.088-.355-.311-.211-.073-.617-.146-1.2-.218-1.82.095,0,.178.077.264-.042A3.714,3.714,0,0,0,8.39,8.065l-.017-.021a.009.009,0,0,1-.007-.005H8.356c0-.005-.012-.005-.012-.01s-.022-.005-.032,0m-.679,3.381a.127.127,0,0,1,.134.092.181.181,0,0,1-.028.165c-.02.036-.084.021-.132.021a.119.119,0,0,1-.119-.067c-.017-.057.031-.114.054-.159s0-.01.008-.015a.172.172,0,0,1,.082-.036" transform="translate(-4.866 -7.748)" fill="#fff"/>
      <path id="Path_339" data-name="Path 339" d="M9.687,7.906a.454.454,0,0,0-.17.052.406.406,0,0,0-.054.489c.1.047.192.16.127.218-.269.325-.976.874-1.012.973v.01h.006a1.659,1.659,0,0,0,.527.005V9.648a7.864,7.864,0,0,0,.874-.988c-.036-.036-.073-.062-.108-.1a.073.073,0,0,1,0-.114.353.353,0,0,0,.03-.494.393.393,0,0,0-.218-.047m-.033.283c.044-.005.1.047.122.108s.014.134-.03.149-.1-.036-.133-.1S9.6,8.207,9.645,8.2c0,0,0-.005.008-.005M4.772,12.919a1.774,1.774,0,0,0-.146,1.42.283.283,0,0,0,.305.113c.168-.082.244-.468.2-.607-.056-.1-.1-.119-.158-.031-.117.268-.167.082-.178-.073a4,4,0,0,1,.032-.762c.03-.21,0-.149-.059-.061m11.518-.771c-.259-.634-.62-1.256-.735-1.493S14.572,9,14.444,8.838c-.283-.376.457.159-.094-.592-.208-.2-.218-.211-.4-.376-.084-.073-.3-.2-.337.01a1.3,1.3,0,0,0,.018.448,1.589,1.589,0,0,0,.218.381,28.83,28.83,0,0,1,2.41,4.353c.119-.061.094-.808.023-.915" transform="translate(-4.54 -7.677)" fill="#fff"/>
      <path id="Path_340" data-name="Path 340" d="M19.1,14.31c-.053.062.125.344.357.339.385-.046.728-.291,1.04-.936a1.793,1.793,0,0,0,.238-.72,17.724,17.724,0,0,0-.26-3.641.644.644,0,0,1,.009-.252c.025-.036.11,0,.154-.082.068-.077-.174-.7-.312-.947-.049-.108-.066-.18-.146.01a1.518,1.518,0,0,0-.135.69c.184,1.431.24,2.694.364,4.121a.63.63,0,0,1-.09.422,3.612,3.612,0,0,1-1.217,1M23.527,16.4c-.279.181-.279.391-.052.4a1.329,1.329,0,0,0,1.158-.623,2.263,2.263,0,0,0,.187-.8,21.236,21.236,0,0,0-.21-3.936,1.953,1.953,0,0,1-.039-.371c.026-.067.151.01.193-.073.068-.073-.323-.643-.462-.885-.047-.108-.064-.181-.146.015a1.22,1.22,0,0,0-.08.684,42.46,42.46,0,0,1,.387,4.446,1.433,1.433,0,0,1-.077.364,2.67,2.67,0,0,1-.378.5c-.128.1-.4.205-.483.283" transform="translate(-8.496 -7.731)" fill="#fff"/>
      <path id="Path_341" data-name="Path 341" d="M24.277,12.875c0-.364.009-.679,0-.952s-.122-1.292-.157-1.507-.077-.55-.13-.813a2.476,2.476,0,0,1-.048-.463c.02-.073.11.005.15-.082a3.1,3.1,0,0,0-.364-1.142c-.05-.108-.146-.073-.261.1-.111.113-.073.37-.028.617a25.507,25.507,0,0,1,.44,4.883c-.016.129.407-.4.4-.643m-2.045-2.018c-.175-.005-.541-.381-.647-.6a.471.471,0,0,1,.02-.325c.065-.046.165-.1.238-.046,0,0,.077.118.063.134.095.051.136.02.146-.026.006-.073-.03-.118-.03-.2.04-.232.272-.263.364-.119a.916.916,0,0,1,.1.4c0,.067-.1-.01-.146.005s-.066.083-.073.146q-.023.316-.03.633m-3.223,2.423c.05-.5-.016-1.508-.02-1.8-.016-.69-.119-2.023-.165-2.244-.055-.422.152.047.122-.2a2.8,2.8,0,0,0-.516-1.086c-.077-.124-.073-.149-.2.031a1.445,1.445,0,0,0,.016.844,17.312,17.312,0,0,1,.325,2.45,24.557,24.557,0,0,1,.02,2.6c.132,0,.342-.242.415-.6" transform="translate(-8.248 -7.7)" fill="#fff"/>
      <path id="Path_342" data-name="Path 342" d="M22.044,12.431c-.305-.583-.771-1.261-.894-1.493s-1.175-1.96-1.306-2.112c-.384-.448.176-.073-.073-.427a3.236,3.236,0,0,0-.454-.494c-.09-.062-.146-.191-.175.02a4.733,4.733,0,0,0-.014.566.758.758,0,0,0,.153.35,32.93,32.93,0,0,1,2.758,4.5c.117-.061.076-.808,0-.91m-3.722,5.509a.3.3,0,0,0-.087.535c-2.873,0-7.282-.052-8.223-.052-.531,0-2.2-.073-2.233-.073a1.622,1.622,0,0,0,1.556.72c1.277,0,7.186-.015,8.866-.015a.717.717,0,0,0,.106.69l.007.005a.009.009,0,0,0,.01.005h.005c.112.031.161-.062.2-.123a10.777,10.777,0,0,0,1.289-.005c.063.1.127.2.246.185.21-.052.374-.077.382-.556,0,0-.022-.813-.5-.762-.113.015-.428.052-.428.052-.364-.047-.636-.052-1.046-.073.039-.052.1-.273.023-.35a.133.133,0,0,0-.1-.031h-.008a.033.033,0,0,1-.009-.01V18.08a.97.97,0,0,1-.046-.139h-.009m.2,1.165c.417.02.81.005,1.231.025a.188.188,0,0,1-.011.237c0,.005-.005.005-.006.005h-.012c-.136-.005-.214-.005-.35-.01,0-.01,0-.015,0-.025-.033-.108-.265-.1-.322-.01v.025a.028.028,0,0,0,0,.015,2.641,2.641,0,0,1-.535-.02c-.052-.073-.046-.206.017-.242M11.054,8.37c-.279.895.162,1.883.466,1.791.218.1.359-.376.451-.891.063-.146.108-.159.141-.087-.009.69.043.844.2,1.05a.459.459,0,0,0,.663.01c.023-.02.273-.3.273-.3a.149.149,0,0,1,.228-.01c.081.082.073.232.249.329a.493.493,0,0,0,.545-.128c.1-.191.122-.258.168-.33.073-.108.194-.061.194-.025-.011.062-.079.119-.035.226.087.073.107.025.158.01.178-.1.312-.53.312-.53.006-.165-.073-.149-.128-.113s-.073.062-.14.108c-.086.01-.255.077-.336-.067-.087-.175-.087-.422-.154-.6,0-.01-.111-.273-.007-.291.052.01.164.046.183-.062.057-.1-.119-.4-.237-.545A.241.241,0,0,0,13.86,7.9a.516.516,0,0,0-.1.319.549.549,0,0,0,.092.433,1.435,1.435,0,0,1,.218.88.321.321,0,0,1-.284.165c-.073-.02-.2-.057-.262-.592a4.232,4.232,0,0,0-.141-1.25c-.056-.165-.1-.324-.232-.041a.7.7,0,0,0-.08.612,2.024,2.024,0,0,1,.087.952,1.716,1.716,0,0,1-.163.262.25.25,0,0,1-.344.052.414.414,0,0,1-.209-.327,5.227,5.227,0,0,0-.034-1.055c-.083-.2-.224-.124-.282-.067a2.508,2.508,0,0,0-.516,1.189c-.08.288-.165.205-.224.087-.146-.149-.154-1.343-.329-1.148" transform="translate(-5.421 -7.647)" fill="#fff"/>
      <path id="Path_343" data-name="Path 343" d="M11.884,10.308c0,.005,0,.005-.008.005v.005c-.018.01-.042.047-.09.087a.5.5,0,0,0-.09.386c0,.026.153.494.283.829a2.889,2.889,0,0,1,.108,1.117,2.615,2.615,0,0,1-1,1.173.463.463,0,0,1-.418,0v-.005a.3.3,0,0,1-.113-.268,2.555,2.555,0,0,0,1.007-1.165,1.364,1.364,0,0,0,.027-.845.888.888,0,0,0-.171-.386s0,0,0-.005c.056-.031.2.092.225.015a1.264,1.264,0,0,0-.291-.6.227.227,0,0,0-.355-.025c-.12.077-.146.35-.09.592.066.175.242.206.368.566v.005a.767.767,0,0,1-.022.376,3.993,3.993,0,0,1-.754.792l-.005.005v.006h-.008v-.006a.832.832,0,0,0,0-.118c0-.1.037-.35.034-.4v-.005c-.215.159-.291.643-.328.787a9.751,9.751,0,0,0-1.529,1.178c-.188.325,1.29-.381,1.456-.463a.008.008,0,0,1,.007.005,1.342,1.342,0,0,0,.132.3.733.733,0,0,0,.8.291,2.652,2.652,0,0,0,1.153-1.081c.044-.073.114-.129.178-.073a1.769,1.769,0,0,0,1.632.963c.184-.253.1-.381.022-.427-.024-.02-.4-.185-.455-.35-.036-.149.051-.283.231-.387a7.119,7.119,0,0,0,1.507-.324,1.6,1.6,0,0,1,.165-.583.262.262,0,0,1,.085-.1v-.01a.029.029,0,0,0,0-.01l-.085-.057-1.637-.01a.2.2,0,0,1-.046-.025v-.031A.1.1,0,0,1,13.854,12c.393-.057,1.086-.185,1.132-.942a.629.629,0,0,0-.576-.715.647.647,0,0,0-.5.746c-.014.1.032.3-.06.319-.6.067-1.26.489-1.284.793h-.008l0,.005h-.008l-.007-.005a.176.176,0,0,1-.08-.186,3.96,3.96,0,0,0-.414-1.574c-.083-.1-.121-.134-.146-.139h-.01m2.393.674a.225.225,0,0,1,.229.19v.02l-.01.01c-.032.036-.1.031-.172-.016a.2.2,0,0,1-.1-.146v-.006c0-.01,0-.015.007-.015l0-.01c0-.005,0-.005.008-.01a.052.052,0,0,1,.039-.015m-1.523,1.554h.016a4.215,4.215,0,0,0,.685.087c.19.015.284.18.106.252s-.344.119-.344.407a.431.431,0,0,1,0,.247c0,.005,0,.01-.007.01v.01h-.005l-.008.005a.007.007,0,0,1-.007.005c-.044.005-.1-.046-.151-.067a1.065,1.065,0,0,1-.454-.756.185.185,0,0,1,.17-.2M7.491,8.461c.19.1.543.057.529-.283q0-.08-.008-.159c-.037-.1-.146-.082-.167.026-.008.031.012.087-.015.108s-.076.005-.073-.087a.151.151,0,0,0-.031-.082.049.049,0,0,0-.046-.015c-.025.005-.025.01-.037.036a.241.241,0,0,0-.015.077c0,.036-.017.047-.039.052s-.017.005-.039-.01-.028-.021-.028-.047a.468.468,0,0,0-.009-.082.084.084,0,0,0-.047-.031c-.1,0-.111.133-.1.185-.009.01-.012.247.127.314" transform="translate(-5.307 -7.727)" fill="#fff"/>
      <path id="Path_344" data-name="Path 344" d="M15.089,11.069c.189.1.637.042.529-.291a1.578,1.578,0,0,0-.012-.159c-.037-.1-.141-.077-.167.026-.006.036.015.092-.012.113s-.077,0-.073-.092a.136.136,0,0,0-.031-.077.051.051,0,0,0-.043-.015c-.025.005-.025.01-.039.036a.3.3,0,0,0-.014.077c0,.036-.015.047-.038.052s-.016.005-.038-.01-.028-.02-.028-.047a.228.228,0,0,0-.012-.082.073.073,0,0,0-.046-.031c-.1,0-.108.133-.1.185-.006.005-.01.242.13.314m3.223-1.088c.188.1.542.052.528-.291,0-.025-.006-.128-.008-.159-.04-.1-.146-.077-.167.031-.009.031.011.087-.017.1s-.073.01-.073-.087a.191.191,0,0,0-.031-.082.084.084,0,0,0-.042-.005c-.025,0-.025.005-.04.031a.318.318,0,0,0-.015.082.041.041,0,0,1-.038.047c-.024.005-.02.005-.036-.01a.058.058,0,0,1-.028-.047.4.4,0,0,0-.012-.087.116.116,0,0,0-.046-.02c-.1,0-.111.133-.1.18-.007.01-.012.247.129.314m1.669,2.736a1.432,1.432,0,0,0-.11,1.255.968.968,0,0,0,.406.52.264.264,0,0,0,.425-.052c.192-.226.2-.8.286-.911.066-.211.224-.175.3-.082a.841.841,0,0,0,.276.268.427.427,0,0,0,.607.046.751.751,0,0,0,.324-.443,18.1,18.1,0,0,0,.024-2.6c-.009-.062-.186-1.07-.186-1.081s-.025-.514-.044-.633c0-.051-.015-.067.031-.061.048.051.052.056.083.066.048.011.092-.082.063-.17-.146-.309-.3-.623-.451-.926-.034-.046-.082-.087-.141.005a.389.389,0,0,0-.109.278c.014.218.048.448.06.669.06.375.12.756.181,1.137.056.808.073,1.549.128,2.357a1.6,1.6,0,0,1-.194.839s-.132.092-.223-.005a3.02,3.02,0,0,1-.331-.494c-.135-.138-.226-.1-.322,0a5.2,5.2,0,0,0-.563,1.194c-.048.082-.178.154-.323-.005a1.878,1.878,0,0,1-.2-1.165M18.4,7.992a.728.728,0,0,1,.248.649c-.034.232-.122.489-.188.453s.047-.232-.018-.443c-.04-.139-.269-.386-.245-.463a.155.155,0,0,1,.2-.2" transform="translate(-7.373 -7.701)" fill="#fff"/>
      <path id="Path_345" data-name="Path 345" d="M17.873,12.885a6.344,6.344,0,0,0-.036-1.019c-.01-.267-.271-2.476-.326-2.681-.064-.385.256-.051.218-.277-.109-.283-.384-.7-.469-.947-.055-.108-.032-.2-.146-.026a2.429,2.429,0,0,0-.1.968,23.6,23.6,0,0,1,.518,4.652c.13,0,.281-.334.347-.668m2.09-2.3c.158.092.247.571.23.71-.03.252-.111.525-.17.489s.012-.375-.018-.478c-.037-.149-.245-.422-.224-.5a.16.16,0,0,1,.182-.218M9.308,12.01c.146.062.233.417.218.52-.03.185-.108.381-.163.364s.013-.278-.018-.355c-.011-.19-.218-.291-.211-.371-.039-.149.083-.175.176-.154m-3.943-4.2c.218.073.23.432.218.54-.03.19-.108.4-.165.371s0-.283-.031-.364c-.031-.119-.218-.319-.194-.381-.042-.129.082-.191.173-.165m4.293,1.7a.469.469,0,0,0-.127.583.237.237,0,0,0,.27.093c.164.025.261-.345.261-.345s.005-.1-.187.092c-.083.021-.093-.015-.114-.067a.514.514,0,0,1,.025-.288c.03-.093-.033-.134-.127-.067m1.25-1.839a.694.694,0,0,0-.254.484c-.007.124-.028.124.046.206.055.087.108.077.215.01a.25.25,0,0,0,.1-.165c.026-.146-.134.067-.156-.092s.068-.206.166-.355c0-.1,0-.165-.12-.087m1.01.2a3.342,3.342,0,0,0-.073.561c-.03.139.132.2.2.02a1.833,1.833,0,0,0,.114-.612c-.032-.211-.16-.2-.244.031m6.357,3.638c.023-.021.9-.721.9-.721.09-.036.073.364.03.355a3.455,3.455,0,0,1-.925.728c-.042.031-.086-.272,0-.36m.8-.008c.156.087.218.591.2.728.006.268-.146.484-.208.453s.007-.334-.023-.443a2.365,2.365,0,0,1-.146-.51c-.044-.17.083-.263.177-.232m-5.2,2.184a1.318,1.318,0,0,1,.248-.242.138.138,0,0,1,.169.036c.015.093-.054.186-.032.314.017.052.032.114.117.088a.542.542,0,0,1,.406-.134c.109,0,.11.205.045.205a2.8,2.8,0,0,0-.555.218.116.116,0,0,1-.161-.025.194.194,0,0,1-.015-.18c.007-.1-.03-.159-.108-.154-.058.041-.108.061-.138-.01-.01-.057-.015-.087.023-.119M20,13.966a.136.136,0,0,1,0,.19c-.063.067-.1.1-.167.165-.028.057-.046.139.042.165.162.052.541-.218.541-.232a.136.136,0,0,0,.036-.149c-.036-.046-.115-.02-.168-.02-.028,0-.111-.02-.073-.1a.748.748,0,0,0,.068-.146c.024-.067.005-.108-.09-.146a.714.714,0,0,0-.233,0c-.056.015-.073.047-.086.119,0,.113.066.108.132.154" transform="translate(-4.717 -7.644)" fill="#fff"/>
    </g>
  </g>
</svg>
