<svg xmlns="http://www.w3.org/2000/svg" width="1944.414" height="1860.87" viewBox="0 0 1944.414 1860.87">
  <path id="Path_230" data-name="Path 230" d="M1546.369,1808.123l130.2,24.33-5.26,28.316h23.672l56.769-309.8,13.152,309.8h23.453l-4.384-104.454,59.619-1.678,6.137,106.132h11.617l-6.137-106.342,89.209-2.307v-22.233l-73.428,1.888-5.7-37.544,79.127,2.307v-11.117l-80.881-2.307-10.959-72.782,47.783-50.34,43.838,26.638v-13.424l-35.947-21.813,35.947-37.964v-16.57l-94.032,99.42c-5.041-27.477-17.535-97.532-22.8-127.106l117.047,19.087v-22.653l-58.3-9.648,13.809-83.27c15.562,3.146,30.467,6.083,44.5,8.81v-22.862l-33.317-6.5,33.317-40.481v-36.286l-58.743,71.733-76.058-15.1,32.44-217.717,102.141,17.619v-37.754l-10.74-1.888,10.74-70.265V868.879l-11.836,77.606-108.717-25.17c5.479-27.477,19.946-100.259,25.426-127.945l95.127,17.2V787.917L1882.822,776.8l48.441-252.325,12.932,2.307V488.819l-31.782-5.663,8.548-56.841,23.234-4.614V410.374l-21.481,4.195,18.851-125.428,2.63.42V9.339l-7.014,46.354-72.771,4.195L1861.122.11h-11.617l3.507,60.617L1791.2,64.292,1788.352.11H1764.9l2.849,65.651-85.7,5.034L1694.978.11h-23.672L1658.812,68.7l-129.32-32.93L1536.286.11h-39.454l-13.151,68.377-88.99,14.473L1383.731.11h-23.453l11.178,86.416-87.017,14.053L1247.178,27.8c22.138-6.083,59.4-16.57,99.73-27.687H1263.4l-26.522,7.341L1232.931.11h-43.4l8.987,17.619c-13.59,3.566-31.782,8.39-49.756,13.214-2.849-7.551-6.795-18.667-11.4-31.042H1125.09l12.494,33.979c-21.7,5.663-40.988,10.907-48.66,13L1032.812,30.1,1036.538.11H1024.7l-3.069,26.638L949.959,5.563,951.932.11H927.164l-9.425,24.54L856.366.11h-21.48L815.816,46.883,727.922,17.728Q733.511,8.919,738.443.11H711.264a463.43,463.43,0,0,1-42.742,60.617L658,.11H634.329l2.85,16.78-58.523,33.35L547.75.11H534.16l72.551,117.668c-1.753,1.049-3.507,2.307-5.041,3.356-23.234,14.472-53.482,25.17-88.113,33.14L525.174.11H513.557L501.721,157c-12.713,2.727-25.864,4.824-39.454,6.922L449.554.11H426.1l4.165,55.373L290.2,39.123,289.328.11H265.875l.877,36.5L234.531,32.83,199.9.11H183.241l32.44,30.413L97.758,16.889,99.95.11H88.113L86.141,15.421,39.235,9.968,40.769.11H1.315L0,9.339V289.56l100.826,17.619,17.316,79.7L0,410.374V421.7l35.289-7.131,11.4,82.64L0,488.819v37.964l51.29,9.229L12.275,789.6,0,787.5V810.15l8.768,1.678L0,868.879v153.115L31.782,816.023,141.6,835.739l-29.152,277.7L0,1094.147V1131.9l103.237,17.618L0,1275.367v36.076l102.361-125.009L74.3,1373.319,0,1358.637V1381.5c30.029,5.873,55.235,10.907,71.017,14.053l-11.836,79.7L0,1465.607v22.653l7.014,1.259L0,1496.65v16.57l20.6-21.814,35.289,5.873L40.769,1597.957,0,1573.207v13.214l39.015,23.7-11.4,75.928L0,1685.212v11.117l25.864.839-4.822,31.881L0,1729.678v22.233l17.754-.419L1.315,1860.56H40.55l16-107.39,44.5,5.663L87.894,1860.56H99.73l8.987-69.636,74.524,69.636H199.9l-89.209-83.689,2.192-16.57,151.02,19.3,1.973,80.962h23.453l-1.973-78.025,134.143,17.2,4.6,60.826h23.453l-2.411-31.252,69.7-11.326-3.288,42.788h11.617l.877-12.795,7.891,12.795h13.59l-19.946-32.511.877-12.165,95.346-15.521,10.521,60.2H658L625.123,1672l166.144,12.166c-18.193,53.276-44.934,118.716-80,176.606h27.179a817.69,817.69,0,0,0,38.358-75.508l77.154,28.316-19.289,47.193h21.481l-7.672-3.146,38.8-95.015,71.017,15.941-31.125,82.011h24.768l59.181-155.632,32.221-3.775L1024.7,1860.77h11.836l7.452-63.763,52.824-13.843,28.494,77.606h12.275c-10.959-29.574-24.549-66.7-29.59-80.543L1143.5,1771l46.03,89.772h43.4l-19.727-38.594,154.747-45.934-8.548,57.89-96,26.429h83.511c4.384-1.259,8.548-2.307,12.932-3.566l.438,3.566h23.453l-1.315-9.858c47.564-13.214,94.47-26.219,122.526-34.188l-8.549,44.047h39.454Zm-21.042-96.483L1403.458,1695.7l12.275-82.43,124.5,20.345Zm-260.614-145.564,8.329-45.305,129.54,23.281-6.576,43.417Zm128.005,43.417-5.26,35.237-85.7-11.746,8.548-36.705Zm-432.457-44.047-57.427-1.468,8.767-47.4,48.66,22.443a84.509,84.509,0,0,0-1.1,13A54.717,54.717,0,0,0,960.261,1565.447Zm17.754,37.754a76.2,76.2,0,0,0,10.3,10.068l-43.837,55.163L903.053,1601.1Zm-3.069-98.58-110.69-50.968,120.334-42.159,18.193,69.426A84.656,84.656,0,0,0,974.947,1504.621ZM207.132,1386.533l14.247-30.623,177.1-40.481-25.207,84.528Zm160.445,35.447-11.836,58.1-43.18-10.488,3.069-51.807ZM120.992,191.189c39.235,2.727,85.045,5.244,132.828,5.873l-.438,11.117-138.088,40.9ZM73.209,164.761,86.36,94.076l126.91,15.311c-1.315,13.214-4.822,46.354-6.576,63.763C155.842,171.263,109.375,168.117,73.209,164.761Zm300.945,148.92,15.124,128.575c-34.632,3.775-138.746,15.311-175.789,19.506l16.22-134.867Zm-121.43-93.547L249,302.774,219.626,305.5l-27.179-4.824-7.891-60.407Zm137.65,233.238,5.48,46.354L206.036,521.959l5.918-48.871Zm799.6-9.019-21.48,72.782-88.552,32.721c-12.932-34.608-23.234-68.587-28.933-89.142Zm-121.649-70.265,67.948-7.97,7.452,46.144-69.921,8.18Zm337.768,473.4-82.2-18.458,40.988-122.7,70.578,12.585C1430.419,741.563,1417.925,796.307,1406.089,847.485ZM1447.077,720.8l86.8,15.521L1420.336,837.837ZM671.81,746.387l134.362-12.165,14.686,55.793-160.884,4.615Zm0-97.113,122.965,41.11,5.7,21.814L681.893,722.9Zm611.315,179.543-21.919,65.65-95.785-36.286,25.645-61.456Zm-87.895-42.369,22.138-53.275c32.878,18.038,64.879,33.979,83.291,42.788l-14.028,42.159Zm-62.687,90.4-44.933-36.5,54.139-73.411,28.275,19.716Zm-4.6,10.907L1125.748,893l-113.1,9.229-56.769-72.362,56.331-36.286Zm-126.69,18.877L905.683,959.28l-21.919-82.85,62.468-40.062C956.535,849.583,989.852,891.951,1001.249,906.634Zm-52.6-85.577c-4.822-5.873-14.028-16.989-20.6-24.96l47.125-32.51,27.618,22.443ZM939,827.349l-58.3,37.544-8.11-30.413,46.029-31.672ZM876.093,998.922l-102.8-29.155,77.154-67.748Zm-115.95-32.93L627.534,928.237l29.81-122.492,166.583-4.615,23.453,88.723ZM615.917,728.978,597.725,581.527l51.948-7.341,20.6,149.759Zm-1.1,22.443,44.714-3.985-21.48,88.3-44.276-13.634Zm20.6,95.225-19.069,78.445-48.879-13.843,23.234-78.235ZM622.712,950.261,559.586,1114.7l-46.906-18.667,48.44-163.392Zm11.179,3.146,60.715,17.2-26.083,74.67c-17.316-5.034-49.536-14.682-62.688-18.667Zm53.043,109.487c11.836,3.985,32.44,10.907,56.769,19.087l-38.358,84.108-52.167-5.873Zm3.507-10.7,26.3-75.3,90.086,25.589-21.7,81.382Zm127.567-46.354L882.45,1024.3l26.741,101.307-113.1-37.964Zm90.524-35.237,49.756-27.477,24.33,83.06-63.564-15.521Zm60.277-33.35,42.961-23.7,109.375-9.019-58.742,140.74-66.414-16.15Zm144.664,45.935,52.386,16.78-18.85,66.489-61.811-15.1Zm4.165-10.487,43.4-104.034,96.443,36.5-33.974,101.307Zm144.006,41.95,97.758,16.78-81.977,130.882-50.413-43.837ZM1273.7,979l46.687-139.481,83.292,18.877c-8.329,36.706-16,69.845-19.508,85.786L1311.4,985.5ZM1413.76,866.572l34.851,40.691L1397.979,936Zm-105.868-112c-38.8-18.877-126.91-63.343-167.459-96.693a66.084,66.084,0,0,1-5.7-5.244l93.812-76.977,105.21,101.727Zm-141.376-157.31-30.686-56.212L1172,527.622l39.673,32.3Zm-9.206,7.551-36.6,30.2c-13.589-19.926-26.083-46.983-36.823-74.46l40.988-15.1Zm-32,70.055c17.974,14.892,44.276,31.462,71.675,46.983l-22.357,53.9-108.059-74.88,49.975-34.4A108.015,108.015,0,0,0,1125.309,674.864Zm7.014,85.367-53.7,72.782-93.593-75.928,71.455-49.29ZM989.852,726.252l-20.823-66.28,51.728-23.7,21.7,53.9Zm-24.33-77.187-16.658-52.856,36.6-47.612,31.125,76.977Zm4.384,90.82-103.237,71.1L829.406,669.41l112-20.555ZM826.337,658.713,782.5,491.965,887.929,479.59,937.9,637.949Zm-35.07,18.668L670.057,636.9l-8.768-64.392,98.635-14.053ZM596.41,570.41,589.4,514.618l154.089-18.038,13.59,51.178Zm-13.809-92.5L570.765,429.67l164.61,7.341,6.137,22.233Zm8.329,238.482L480.24,594.741l-4.6-66.7,90.524-10.7ZM471.253,490.916l-7.891-47.822c31.344-4.614,66.633-9.858,83.949-12.375l12.275,49.92ZM464.02,529.3l4.384,62.714-49.1,4.614,1.754-62.085Zm8.11,73.411L589.176,731.286,415.141,747.017l3.726-139.481C434.649,606.277,462.924,603.55,472.13,602.711Zm117.7,151.017-96,323.219L446.7,1051.568,546.873,757.5Zm-83.73,363.91,120.115,48.032-13.371,38.384-117.265-51.388Zm64,1.468,31.344-81.8,63.126,18.668-30.906,88.513Zm78.908,51.6,53.043,6.083L690,1252.086l-56.331-36.915Zm65.318,2.727,40.331-87.884c31.782,10.7,68.167,22.862,99.511,33.35l-35.289,172.2-44.714,16.36-73.647-48.452Zm177.542,114.731L911.6,1355.91l-83.072,33.14-37.919-63.763Zm-60.057-1.888,33.536-163.812c19.069,6.292,35.728,11.955,47.564,15.941l28.494,107.809Zm93.812-251.066,129.759,31.672-33.536,42.369-71.674,19.506Zm142.253,34.818,122.526,29.994-136.554,66.49-21.7-51.388Zm90.305-1.049,18.631-65.651L1220,1017.17l-20.823,61.875Zm64.88,61.246,109.594,95.015-8.11,14.892c-55.454-10.278-104.114-19.087-130.2-23.911Zm63.126,39.642,85.483-136.335,59.181,10.277-92.936,171.153Zm156.938-124.17,18.85,3.356-36.823,209.536c-29.59-5.453-59.838-11.116-88.771-16.36Zm6.576,141.159,96,22.023-11.617,69.846c-28.933-5.244-62.468-11.536-97.319-17.829Zm14.466,101.727,65.1,11.956L1500.34,1415.9l-53.7-10.488Zm76.716,14.053,60.934,11.117L1579.247,1431l-67.291-13Zm4.6-21.814,11.617-70.265,63.564,4.824-14.686,76.557C1591.741,1289.211,1570.7,1285.435,1545.492,1280.821Zm13.37-81.381,7.891-46.984,64.441,8.6-8.329,43.418Zm9.644-58.1,11.836-71.943,65.975,11.326-13.371,69.216Zm-21.042,56.422-95.785-21.814,21.919-124.8,95.566,16.36Zm-201-206.39,117.046-66.49L1550.1,1026.4ZM1473.6,919.008l152.116-86.625,33.974,39.642-152.335,86.206Zm-14.9-17.409-40.112-46.983L1546.807,740.3l64,74.879Zm92.716-243.516-91.182-11.536c2.849-16.57,5.48-31.881,6.795-39.852l90.086,17.409Zm-1.754,11.117-7.672,45.935-90.524-16.36c1.753-10.068,4.384-25.589,7.014-41.32Zm-109.813,27.687-67.729-12.165,30.248-90.4,53.263,10.278Zm-97.977-43.418-95.566-92.5,74.743-61.456,62.03,30.413ZM1220.656,552.582l-40.988-33.35,22.576-76.348,139.4-16.36a79.61,79.61,0,0,0,8.548,19.716Zm-53.7-143.047-18.412-113.473,79.127-11.746,18.631,115.99Zm-64.441,239.111-50.194,34.608L993.8,538.109l40.111-52.017C1047.279,530.978,1072.047,604.389,1102.514,648.646ZM944.7,582.995,911.382,477.073l116.17-13.634c.657,2.727,1.534,5.663,2.411,8.809ZM926.287,437.641l-37.481,4.4-63.784-97.952,101.484-15.1Zm-50.194,5.873L778.774,454.84l38.577-101.517Zm-115.95-4.824L707.976,245.932l111.347,37.545Zm-27.617-13L642,421.7,617.89,291.447l76.5-6.922Zm-102.58-4.614-61.811-2.727L538.982,298.579l67.071-6.083Zm-85.264-1.259L461.39,431.978,453.5,384.155l80-10.277Zm-85.045,72.572-40.55,4.824-5.48-46.773c8.987-1.259,22.8-3.356,38.139-5.663ZM414.484,769.669,534.16,758.763l-60.934,178.7-62.688-24.541Zm55.235,178.494L435.745,1048l-28.494-4.4,3.288-118.506Zm-37.7,110.536-27.4,80.543,2.192-84.528C415.141,1055.973,425.443,1057.651,432.019,1058.7Zm10.959,3.776,47.564,25.589-50.413,169.895-38.358-17.619,1.754-61.875Zm49.536,101.1,116.608,51.178-36.385,104.244-111.128-51.178Zm137.211,62.5,131.293,86.206-113.1,41.32-54.14-24.96Zm14.686,167.168,103.676,47.822-26.96,48.242-92.059-19.087Zm32.44-26.218,102.8-37.544,38.139,63.973-44.933,17.828Zm238.038-.21,15.124,52.017-80.223,28.106-62.907-29.155Zm-12.055-82.64,44.057-16.15,34.851,132.35-40.988,14.263Zm50.413-144.515,68.825-18.667,65.975,155.841-91.4,27.267Zm104.991,37.125,129.54-63.134-69.044,206.181Zm128.882,60.826,110.909,20.345-21.261,114.731-126.69-24.54Zm108.5,161.5,124.937,24.121-9.644,65.23-120.773-59.777Zm3.945-22.024,21.261-114.941,120.553,22.233-17.535,116.828Zm144.006,50.549,131.512,25.38-12.932,67.538-128.883-24.331Zm146.417,152.7,56.331,6.922-17.535,85.786-55.455-6.712Zm2.192-10.907,25.864-134.657,57.646,9.439-26.96,132.14Zm30.029-156.68,17.535-91.66c18.193,3.566,48.221,9.648,83.73,16.57l-20.823,88.094Zm21.918-113.473,21.7-113.263,139.184,18.668L1786.6,1327.594Zm17.316-253.793-93.812-16.15-53.043-62.085,152.335-86.206,22.576,26.428ZM1711.2,917.96,1807.86,940.4c-5.48,26.009-19.288,93.337-26.083,125.848l-97.319-16.779Zm-15.781-39.013L1581,744.919l136.773,24.54ZM1564.781,719.33,1587.8,582.156l163.295,22.653-29.152,142.837Zm87.675-150.808,13.37-91.659,107.4,19.3-17.754,86.625Zm7.891-130.672-44.057-7.97,14.028-75.928,44.5,4.614Zm-5.918,36.915c-3.726,25.589-10.3,71.1-13.37,92.079l-49.317-6.922,15.781-93.757Zm-61.153-48.871-84.168-15.1c0-1.678.219-3.146.219-4.824a81.1,81.1,0,0,0-7.014-32.511l79.346-45.725,21.7,44.676Zm-8.987,36.286-25.207,150.808-152.993-29.364,32.659-97.532c25.207-4.195,46.687-19.087,58.962-39.432Zm-160.226-12.165c-25.426,0-46.248-19.716-46.248-44.256,0-24.331,20.6-44.257,46.248-44.257,25.426,0,46.248,19.716,46.248,44.257S1449.488,450.016,1424.062,450.016Zm-25.426,33.56-12.055,35.657-56.112-27.477,33.974-27.9A87.627,87.627,0,0,0,1398.636,483.575Zm-57.646-94.386-82.853,9.648-18.85-116.2,88.552-13.214,39.015,76.348A80.8,80.8,0,0,0,1340.99,389.189ZM1129.474,276.346l-5.918-44.466,169.213-30.623,24.111,47.193Zm-3.945,23.282,8.987,55.583-67.51,7.761-6.356-53.7ZM1062.4,421.91,938.123,436.382l.219-109.068,110.909-16.57ZM942.069,304.242l39.892-136.755,49.1,17.828-28.275,109.907Zm-12.713,1.888-99.73,14.892L899.546,137.7,971,163.5ZM823.269,272.99l-57.208-19.3,20.165-69.007L847.6,209.017ZM755.1,249.918l-50.632-17.2-24.549-90.61,95.566,38.174ZM688.249,262.5,528.681,277.185l-7.233-49.29,149.486-28.526Zm-157.6,100.469-79.127,10.068L440.567,307.6l74.962-6.922Zm-88.771,22.653,8.11,48.032-37.481,5.454-5.7-49.081Zm-36.6-6.5-7.891-67.538,31.563-2.936,10.959,65.86Zm-7.891,157.939-1.754,61.455c-18.631,1.678-55.893,4.824-71.017,6.083l2.411-59.358ZM300.945,901.6l-1.973,50.339c-13.151-.42-44.5-1.468-57.646-2.1l2.411-52.227ZM248.12,875.8l57.646-89.142-3.726,92.708Zm50.413,87.255-2.411,59.777c-19.069-3.566-38.8-7.341-57.646-10.907l2.411-50.968Zm-3.288,71.1-9.644,74.88-60.934-15.1,12.275-70.685Zm-3.288,116.829,33.974,8.18-3.507,44.257-35.289-16.151Zm1.534-11.116,13.371-103.615,28.494,5.453-8.329,106.342Zm53.043-96.064,37.043,6.922-4.822,178.7-44.934-20.765Zm-38.8-18.667,2.411-61.456c15.124.839,55.674,3.146,75.62,4.2L383.8,1039.4C368.454,1036.466,339.741,1031.013,307.739,1025.14Zm2.85-72.572,1.973-50.129,74.743,5.034-1.315,49.081Zm3.069-72.363,4.384-109.278,73.209-5.034-3.288,119.346Zm4.822-120.6,1.754-43.837,72.332,1.888-1.1,36.915Zm2.63-66.28,3.069-77.606,71.017-6.083L393,695.209ZM209.763,559.084,315.63,546.709l-2.411,58.519L204.94,604.179Zm103.018,57.051L309.712,692.9l-113.758-2.727,7.891-74.88Zm-4.165,99.21L306.644,763.8l-37.262,57.471L192.008,727.51l1.534-15.311Zm-45.591,116.2-28.056,43.208L177.1,870.767l13.37-127.316ZM232.12,896.985l-5.261,112.843c-25.426-4.824-48.221-9.019-63.126-11.955L174.693,893ZM157.377,684.932l-46.906-6.292L133.7,550.9l37.043,6.712Zm5.041,324.268,63.126,11.956-22.357,127.526-52.824-24.331Zm60.5,95.644,61.373,15.311L276.4,1182.24l-62.03-28.526Zm58.962,121.233,125.814,58.1-5.7,19.087L227.3,1343.116ZM418.429,1289l61.811,28.526-27.179,88.932-68.167-5.453Zm83.072,38.384,53.263,24.541-39.015,155.841-67.071-6.712ZM594,1526.853l-5.7,28.525-155.185-4.195,12.055-39.223Zm-66.633-18.038L565.5,1356.749l57.208,26.428-26.522,132.56Zm99.511-27.477,165.267,34.189-5.918,45.3-174.254-4.824Zm106.087,10.487,25.645-45.724,57.427,26.428-20.384,32.3ZM804.2,1513.01l22.576-35.447,73.647,33.979-9.644,52.017-92.936-2.517Zm239.791-5.244c25.426,0,46.249,19.716,46.249,44.256,0,24.33-20.6,44.256-46.249,44.256-25.426,0-46.249-19.716-46.249-44.256C997.961,1527.692,1018.565,1507.767,1043.991,1507.767Zm23.234-33.979a84.956,84.956,0,0,0-23.234-3.146h-3.507L999.277,1314.8l92.935-27.687,20.823,49.29Zm75.62-104.244,129.759,25.169-1.973,10.907-157.6,99a88.229,88.229,0,0,0-11.4-12.375Zm124.937,51.178L1241.7,1562.3l-113.1-18.458a76.032,76.032,0,0,0-9.425-29.574Zm31.125,173.461-8.767,37.125-103.9-14.263,19.946-37.754Zm-23.892-84.528,12.932-69.426,121.211,59.987-4.822,32.93ZM1544.4,1611.591l-125.375-20.555,12.494-83.9,128.225,24.121Zm59.619,184.367-53.482-10.068,20.823-108.649,55.235,6.712Zm76.5,14.472-53.7-10.068,33.975-167.168,50.193,10.7Zm32.659-177.655-49.975-10.488,35.508-174.3,46.906,7.761Zm145.76,99-76.059,2.1-1.972-48.032,61.591-65.021C1846.217,1646.2,1855.2,1706.4,1858.931,1731.775ZM1840.3,1606.557l-60.057,63.343-8.987-210.166,43.837,7.132Zm36.6-238.272-14.028,83.9-148.609-24.33,20.6-87.884C1778.927,1348.779,1829.778,1358.846,1876.9,1368.285Zm-70.359-174.719L1667.8,1175.109l16.877-87.674,134.362,23.072Zm45.811-115.36-59.181-10.068,12.055-58.519,58.085,11.117Zm58.084,10.068-46.687-7.97,11.178-57.471,44.276,8.6Zm18.412-119.765-7.891,51.807L1807.641,998.5l11.4-55.583Zm-116.608-50.129-96.662-22.443,24.988-122.492,97.1,17.409Zm59.181-143.886-126.471-22.653,21.042-103.615,124.937,24.121Zm64.222-707.475-13.37,89.562-52.167-.839-4.822-84.528Zm-66.194,111.166,49.317.839-26.521,176.816-39.892-.21Zm-17.974,188.562,39.235.21-16.439,109.488-32.878-5.873Zm-21.7,101.727-21.919-3.985-12.275-287.562,62.03,1.049Zm23.672-396.63,4.823,83.689-63.564-1.049-3.288-78.865Zm-57.208,428.3,123.622,22.233L1893.124,661.23l-124.937-24.121Zm-11.836-39.852-112.443-20.136c4.384-24.331,11.836-65.86,14.466-80.333l94.251,9.648Zm-4.384-102.356-147.951-15.1,10.959-60.407,133.486-1.259ZM1680.073,82.121l88.113-5.244,3.507,83.059-105.868-.839Zm-16.22,88.093,108.279.839,4.164,99.21-131.074,1.258ZM1527.3,46.883l129.321,32.93-14.028,75.928-129.54-36.5Zm113.54,119.975-30.686,166.958-98.416-203.454Zm-136.773.839,72.551,149.759-79.784,45.935a84.4,84.4,0,0,0-25.426-25.379Zm-22.8-87.464-47.125,244.984c-2.849-.21-5.48-.419-8.329-.629L1396.006,93.866ZM1372.991,97.642,1402.8,327.1a5.351,5.351,0,0,1-1.754.419L1289.919,111.066ZM1209.258,38.284l78.25,152.7-77.154,14.053-53.7-152.7Zm-64,16.989c11.178,31.462,44.5,126.687,53.482,151.647l-76.715,13.843L1101.637,66.809ZM1106.24,279.911l-91.182,13.634L1041.8,189.511l55.016,19.926Zm-10.959-83.06L985.687,157l25.864-54.115,74.743,26.009ZM1028.209,52.127l49.975,14.892,6.576,49.29L1015.716,92.4Zm-86.36-25.589,75.181,22.233L1003,93.657l-28.056,59.148L903.491,126.8ZM844.311,7.451l69.483,27.687-14.9,39.223L826.776,50.449ZM819.323,71.633l71.455,23.7-39.235,103.2-62.03-24.75Zm-104.114-34.4,93.155,30.833-29.81,101.517-102.58-40.691-8.767-32.3C684.742,78.765,700.524,58.629,715.209,37.235ZM584.573,59.887l54.8-31.252L648.8,82.75a289.119,289.119,0,0,1-32.44,28.526Zm29.81,80.123a253.334,253.334,0,0,0,33.755-25.17l19.946,73.831L519.913,216.987l-5.7-39.432C553.449,168.536,587.861,156.371,614.383,140.011ZM502.816,179.653l14.466,98.581L362.1,292.5l-7.672-96.274C406.155,193.706,457.225,188.672,502.816,179.653ZM432.238,78.345l6.795,88.723c-46.249,5.453-96.223,7.551-145.321,7.761L290.862,61.985ZM342.59,196.432l7.891,96.9-89.648,8.18,4.6-104.244C290.862,197.481,316.726,197.271,342.59,196.432ZM231.462,54.854l35.947,4.195,1.1,45.725-42.522-5.034C227.3,89.671,229.928,68.068,231.462,54.854ZM268.943,116.1l1.534,58.519c-17.535-.21-35.07-.419-51.947-1.049l6.356-62.924Zm-233-84.108L220.064,53.385l-5.48,44.886L29.371,76.038ZM27.618,87.154l47.125,5.663L61.592,163.712c-18.631-1.678-33.755-3.356-44.714-4.614ZM99.73,284.316.658,266.907,13.59,181.331c19.946,2.307,53.7,5.873,95.785,9.019Zm14.028-23.282,59.4-17.619,7.233,54.954L111.128,286.2Zm-.658,48.451,93.155,16.36L182.583,521.959l-24.549-4.4ZM46.906,412.471l73.428-14.682L145.76,515.037,58.742,499.306ZM35.07,793.79,74.085,540.207l48.221,8.6L76.277,801.131Zm52.824,9.439,20.823-113.683,47.783,6.5L144.225,813.3ZM145.1,1162.943l115.731,53.276-78.25,168.217-69.7-5.663Zm-35.508,238.062L292.615,1415.9l-3.069,51.807L97.539,1482.177Zm179.076,78.026-4.165,68.167-47.783-1.258v-62.924ZM95.785,1493.5l129.321-9.858v61.666l-136.554-3.566Zm69.044,251.067L60.057,1731.146l15.782-105.293,99.073,13ZM77.592,1614.737l5.48-35.866,97.538,2.727-4.384,46.353Zm134.362,135.916-35.508-4.614,10.083-105.5,36.6,4.824Zm12.275-116.409-36.824-4.824,4.6-47.4,37.7,1.049Zm52.167,124.59-41.207-5.243,11.179-106.132,37.919,2.1Zm-28.933-122.492,5.7-52.856,152.116,4.2,4.384,57.47Zm40.55,123.96,8.11-110.117,114.416,6.292,9.206,120.814ZM409,1550.554l-101.046-2.726,3.945-66.7,110.032,26.847Zm-41.865-67.748,12.275-59.987,67.071,5.453-21.042,68.8Zm61.592,105.5,159.13,4.4,6.795,39.223L433.115,1645.15Zm5.041,67.748,162.637-13.214,9.863,56.841-167.9,17.409Zm12.494,162.134-6.137-78.655L610,1721.917l11.836,67.538ZM623.15,1660.462l-11.617-67.328,205.6,5.663c-4.384,16.99-11.836,43-22.138,74.25ZM858.339,1802.88,781.4,1774.773c4.822-11.117,9.425-22.023,13.59-32.93l80.88,18.248ZM803.1,1720.869a1191.5,1191.5,0,0,0,37.92-121.443l48.221,1.259,47.345,77.187-49.1,61.875ZM966.4,1757.574l-66.633-14.892,45.591-57.471,42.084,16.57Zm25.207-66.28-38.8-15.312,44.495-56a79.622,79.622,0,0,0,18.193,8.6Zm24.111,2.1,22.8-59.987a45.97,45.97,0,0,0,5.48.21,88.232,88.232,0,0,0,26.96-4.2l27.618,53.7Zm29.59,91.659,9.863-85.367,48.66-6.083,34.412,67.119Zm94.689-105.5-35.947-70.055a79.74,79.74,0,0,0,23.672-43.208l66.633,10.907Zm67.948,132.35-20.384-39.642,67.948-18.668,10.959,40.691Zm161.761-48.032-92.059,27.267-10.959-40.481,109.375-29.994Zm10.082-67.329-202.529,55.373-30.686-59.778,34.193-64.6,205.16,28.316Zm3.945,130.673,16.22-109.278,56.989,7.551-13.37,85.157Zm126.033-35.238-53.7,14.892,12.713-80.333,52.386,6.922Z" transform="translate(0 0.1)" fill="#e8e8e8"/>
</svg>
