<svg xmlns="http://www.w3.org/2000/svg" xmlns:xlink="http://www.w3.org/1999/xlink" width="80" height="80" viewBox="0 0 80 80">
  <defs>
    <linearGradient id="linear-gradient" x1="0.119" y1="0.119" x2="0.83" y2="0.83" gradientUnits="objectBoundingBox">
      <stop offset="0" stop-color="#fee411"/>
      <stop offset="0.052" stop-color="#fedb16"/>
      <stop offset="0.138" stop-color="#fec125"/>
      <stop offset="0.248" stop-color="#fe983d"/>
      <stop offset="0.376" stop-color="#fe5f5e"/>
      <stop offset="0.5" stop-color="#fe2181"/>
      <stop offset="1" stop-color="#9000dc"/>
    </linearGradient>
  </defs>
  <g id="Group_231" data-name="Group 231" transform="translate(-31 -31)">
    <circle id="Ellipse_19" data-name="Ellipse 19" cx="40" cy="40" r="40" transform="translate(31 31)" fill="url(#linear-gradient)"/>
    <g id="Group_230" data-name="Group 230" transform="translate(48.796 48.778)">
      <path id="Path_378" data-name="Path 378" d="M161.8,131H144.824A13.733,13.733,0,0,0,131.1,144.724V161.7a13.733,13.733,0,0,0,13.724,13.724H161.8A13.733,13.733,0,0,0,175.527,161.7V144.724A13.733,13.733,0,0,0,161.8,131Zm8.764,30.72a8.79,8.79,0,0,1-8.782,8.782H144.807a8.79,8.79,0,0,1-8.782-8.782V144.742a8.79,8.79,0,0,1,8.782-8.782h16.978a8.79,8.79,0,0,1,8.782,8.782Z" transform="translate(-131.1 -131)" fill="#fff"/>
      <path id="Path_379" data-name="Path 379" d="M203.46,192.1a11.36,11.36,0,1,0,11.36,11.36A11.381,11.381,0,0,0,203.46,192.1Zm0,18.258a6.9,6.9,0,1,1,6.9-6.9,6.9,6.9,0,0,1-6.9,6.9Z" transform="translate(-181.256 -181.238)" fill="#fff"/>
      <circle id="Ellipse_20" data-name="Ellipse 20" cx="1.92" cy="1.92" r="1.92" transform="translate(31.919 8.626) rotate(-9.25)" fill="#fff"/>
    </g>
  </g>
</svg>
