<svg xmlns="http://www.w3.org/2000/svg" width="50" height="50" viewBox="0 0 50 50">
  <g id="Group_32" data-name="Group 32" transform="translate(-6 -6)">
    <circle id="Ellipse_2" data-name="Ellipse 2" cx="5.25" cy="5.25" r="5.25" transform="translate(25.75 25.75)" fill="#fff"/>
    <path id="Path_133" data-name="Path 133" d="M31,6A25,25,0,1,0,56,31,25,25,0,0,0,31,6ZM46.446,37.354a9.459,9.459,0,0,1-2.52,6.434,9.633,9.633,0,0,1-6.5,2.493H24.578a9.631,9.631,0,0,1-6.5-2.493,9.459,9.459,0,0,1-2.52-6.434V24.646a9.46,9.46,0,0,1,2.52-6.434,9.633,9.633,0,0,1,6.5-2.493H37.422a9.631,9.631,0,0,1,6.5,2.493,9.459,9.459,0,0,1,2.52,6.434Z" fill="#fff"/>
    <path id="Path_134" data-name="Path 134" d="M148.534,131.559c-3.129-.086-9.391-.086-12.519,0a6.563,6.563,0,0,0-4.634,1.689,6.644,6.644,0,0,0-1.707,4.585c-.081,3.055,0,12.225,0,12.225a6.676,6.676,0,0,0,1.707,4.585,6.561,6.561,0,0,0,4.634,1.689c3.129.086,9.391.086,12.519,0a6.563,6.563,0,0,0,4.634-1.689,6.644,6.644,0,0,0,1.707-4.585V137.832a6.644,6.644,0,0,0-1.707-4.585,6.563,6.563,0,0,0-4.634-1.689Zm-6.26,20.524a8.137,8.137,0,1,1,8.137-8.137A8.137,8.137,0,0,1,142.274,152.083Zm8.172-14.6a1.628,1.628,0,1,1,1.628-1.628,1.628,1.628,0,0,1-1.628,1.628Z" transform="translate(-111.274 -112.945)" fill="#fff"/>
  </g>
</svg>
