<svg xmlns="http://www.w3.org/2000/svg" xmlns:xlink="http://www.w3.org/1999/xlink" width="115.309" height="100.225" viewBox="0 0 115.309 100.225">
  <defs>
    <radialGradient id="radial-gradient" cx="0.5" cy="0.5" r="0.5" gradientUnits="objectBoundingBox">
      <stop offset="0" stop-color="#5a7076"/>
      <stop offset="1" stop-color="#9e9a9f"/>
    </radialGradient>
    <radialGradient id="radial-gradient-2" cx="0.5" cy="0.5" r="0.5" xlink:href="#radial-gradient"/>
    <radialGradient id="radial-gradient-9" cx="0.5" cy="0.5" r="0.582" xlink:href="#radial-gradient"/>
    <radialGradient id="radial-gradient-10" cx="0.5" cy="0.5" r="0.582" xlink:href="#radial-gradient"/>
    <radialGradient id="radial-gradient-11" cx="0.5" cy="0.5" r="0.582" xlink:href="#radial-gradient"/>
    <radialGradient id="radial-gradient-12" cx="0.5" cy="0.5" r="0.583" xlink:href="#radial-gradient"/>
    <radialGradient id="radial-gradient-13" cx="0.5" cy="0.5" r="0.582" xlink:href="#radial-gradient"/>
    <radialGradient id="radial-gradient-14" cx="0.5" cy="0.5" r="0.582" xlink:href="#radial-gradient"/>
    <radialGradient id="radial-gradient-16" cx="0.5" cy="0.5" r="0.582" xlink:href="#radial-gradient"/>
    <radialGradient id="radial-gradient-17" cx="0.5" cy="0.5" r="0.582" xlink:href="#radial-gradient"/>
    <radialGradient id="radial-gradient-25" cx="0.5" cy="0.5" r="0.501" xlink:href="#radial-gradient"/>
    <radialGradient id="radial-gradient-26" cx="0.5" cy="0.5" r="0.666" xlink:href="#radial-gradient"/>
    <radialGradient id="radial-gradient-36" cx="0.5" cy="0.5" r="0.557" xlink:href="#radial-gradient"/>
    <radialGradient id="radial-gradient-37" cx="0.5" cy="0.5" r="0.557" xlink:href="#radial-gradient"/>
    <radialGradient id="radial-gradient-38" cx="0.5" cy="0.5" r="0.557" xlink:href="#radial-gradient"/>
    <radialGradient id="radial-gradient-39" cx="0.5" cy="0.5" r="0.557" xlink:href="#radial-gradient"/>
    <radialGradient id="radial-gradient-40" cx="0.5" cy="0.5" r="0.557" xlink:href="#radial-gradient"/>
    <radialGradient id="radial-gradient-41" cx="0.5" cy="0.5" r="0.557" xlink:href="#radial-gradient"/>
    <radialGradient id="radial-gradient-42" cx="0.5" cy="0.5" r="0.557" xlink:href="#radial-gradient"/>
    <radialGradient id="radial-gradient-44" cx="0.5" cy="0.5" r="0.557" xlink:href="#radial-gradient"/>
    <radialGradient id="radial-gradient-55" cx="0.5" cy="0.5" r="0.589" xlink:href="#radial-gradient"/>
    <radialGradient id="radial-gradient-56" cx="0.5" cy="0.5" r="0.589" xlink:href="#radial-gradient"/>
    <radialGradient id="radial-gradient-57" cx="0.5" cy="0.5" r="0.589" xlink:href="#radial-gradient"/>
    <radialGradient id="radial-gradient-58" cx="0.5" cy="0.5" r="0.589" xlink:href="#radial-gradient"/>
    <radialGradient id="radial-gradient-59" cx="0.5" cy="0.5" r="0.589" xlink:href="#radial-gradient"/>
    <radialGradient id="radial-gradient-60" cx="0.5" cy="0.5" r="0.589" xlink:href="#radial-gradient"/>
    <radialGradient id="radial-gradient-62" cx="0.5" cy="0.5" r="0.589" xlink:href="#radial-gradient"/>
    <radialGradient id="radial-gradient-66" cx="0.5" cy="0.5" r="0.662" xlink:href="#radial-gradient"/>
    <radialGradient id="radial-gradient-68" cx="0.5" cy="0.5" r="0.662" xlink:href="#radial-gradient"/>
    <radialGradient id="radial-gradient-70" cx="0.5" cy="0.5" r="0.662" xlink:href="#radial-gradient"/>
    <radialGradient id="radial-gradient-81" cx="0.5" cy="0.5" r="0.501" xlink:href="#radial-gradient"/>
    <radialGradient id="radial-gradient-82" cx="0.5" cy="0.5" r="0.55" xlink:href="#radial-gradient"/>
    <radialGradient id="radial-gradient-83" cx="0.5" cy="0.5" r="0.55" xlink:href="#radial-gradient"/>
    <radialGradient id="radial-gradient-84" cx="0.5" cy="0.5" r="0.55" xlink:href="#radial-gradient"/>
    <radialGradient id="radial-gradient-85" cx="0.5" cy="0.5" r="0.55" xlink:href="#radial-gradient"/>
    <radialGradient id="radial-gradient-86" cx="0.5" cy="0.5" r="0.55" xlink:href="#radial-gradient"/>
    <radialGradient id="radial-gradient-87" cx="0.5" cy="0.5" r="0.55" xlink:href="#radial-gradient"/>
    <radialGradient id="radial-gradient-88" cx="0.5" cy="0.5" r="0.55" xlink:href="#radial-gradient"/>
    <radialGradient id="radial-gradient-89" cx="0.5" cy="0.5" r="0.55" xlink:href="#radial-gradient"/>
    <radialGradient id="radial-gradient-90" cx="0.5" cy="0.5" r="0.55" xlink:href="#radial-gradient"/>
    <radialGradient id="radial-gradient-91" cx="0.5" cy="0.5" r="0.556" gradientUnits="objectBoundingBox">
      <stop offset="0" stop-color="#71af2f"/>
      <stop offset="0.005" stop-color="#77af3c"/>
      <stop offset="0.017" stop-color="#86af5c"/>
      <stop offset="0.032" stop-color="#92af77"/>
      <stop offset="0.048" stop-color="#9caf8d"/>
      <stop offset="0.067" stop-color="#a4af9e"/>
      <stop offset="0.091" stop-color="#a9afaa"/>
      <stop offset="0.124" stop-color="#adafb1"/>
      <stop offset="0.215" stop-color="#aeb0b3"/>
      <stop offset="0.218" stop-color="#adafb1"/>
      <stop offset="0.331" stop-color="#9baf89"/>
      <stop offset="0.447" stop-color="#8baf69"/>
      <stop offset="0.567" stop-color="#80af4f"/>
      <stop offset="0.689" stop-color="#77af3d"/>
      <stop offset="0.818" stop-color="#72af32"/>
      <stop offset="0.964" stop-color="#71af2f"/>
    </radialGradient>
    <linearGradient id="linear-gradient" y1="0.5" x2="1" y2="0.5" gradientUnits="objectBoundingBox">
      <stop offset="0.282" stop-color="#5a5b5e"/>
      <stop offset="0.529" stop-color="#58595c" stop-opacity="0.992"/>
      <stop offset="0.618" stop-color="#535456" stop-opacity="0.969"/>
      <stop offset="0.681" stop-color="#4a4a4d" stop-opacity="0.922"/>
      <stop offset="0.732" stop-color="#3d3d3f" stop-opacity="0.859"/>
      <stop offset="0.765" stop-color="#313133" stop-opacity="0.8"/>
    </linearGradient>
    <radialGradient id="radial-gradient-92" cx="0.5" cy="0.5" r="0.5" gradientUnits="objectBoundingBox">
      <stop offset="0" stop-color="#5d5e69"/>
      <stop offset="1" stop-color="#9e9a9f"/>
    </radialGradient>
  </defs>
  <g id="Group_13" data-name="Group 13" transform="translate(-161.875 -294.484)">
    <g id="Group_12" data-name="Group 12" transform="translate(161.875 297.308)">
      <g id="Group_7" data-name="Group 7" transform="translate(11.394)">
        <g id="Path_112" data-name="Path 112" transform="translate(-261.94 -309.352)" fill="url(#radial-gradient)">
          <path d="M 293.1226501464844 321.5936889648438 L 292.4019775390625 320.9032287597656 L 289.6275024414062 318.2449645996094 L 288.9041748046875 317.5519104003906 L 289.5984802246094 316.8298034667969 L 292.2609558105469 314.0606994628906 L 292.9526672363281 313.3412780761719 L 293.6734619140625 314.0315551757812 L 296.4490966796875 316.6897583007812 L 297.1729125976562 317.3829345703125 L 296.4781494140625 318.105224609375 L 293.8145141601562 320.8743896484375 L 293.1226501464844 321.5936889648438 Z" stroke="none"/>
          <path d="M 292.9818115234375 314.7537841796875 L 290.3193359375 317.5228881835938 L 293.0938110351562 320.18115234375 L 295.7574462890625 317.4119873046875 L 292.9818115234375 314.7537841796875 M 292.9235534667969 311.9287719726562 L 298.58837890625 317.3539123535156 L 293.1514587402344 323.0061950683594 L 287.489013671875 317.5809326171875 L 292.9235534667969 311.9287719726562 Z" stroke="none" fill="#fff"/>
        </g>
        <g id="Path_113" data-name="Path 113" transform="translate(-282.037 -309.352)" fill="url(#radial-gradient-2)">
          <path d="M 322.2328186035156 321.5943298339844 L 321.5121459960938 320.903564453125 L 318.7387084960938 318.2452392578125 L 318.0156555175781 317.5521850585938 L 318.7098388671875 316.8302307128906 L 321.3723754882812 314.0610656738281 L 322.0642395019531 313.3414916992188 L 322.7850646972656 314.0320739746094 L 325.5595397949219 316.6903381347656 L 326.2830200195312 317.3835144042969 L 325.5884399414062 318.1056213378906 L 322.9248352050781 320.8748779296875 L 322.2328186035156 321.5943298339844 Z" stroke="none"/>
          <path d="M 322.2041320800781 320.181640625 L 324.8677062988281 317.4124145507812 L 322.0932312011719 314.754150390625 L 319.4306945800781 317.5233154296875 L 322.2041320800781 320.181640625 M 322.2615356445312 323.0070190429688 L 316.6006469726562 317.5810852050781 L 322.0352783203125 311.9288024902344 L 327.6983032226562 317.3546142578125 L 322.2615356445312 323.0070190429688 Z" stroke="none" fill="#fff"/>
        </g>
        <g id="Path_114" data-name="Path 114" transform="translate(-273.325 -318.501)" fill="url(#radial-gradient)">
          <path d="M 309.0029296875 333.6450805664062 L 308.281982421875 332.9550170898438 L 306.1203002929688 330.8859252929688 L 305.3962707519531 330.1929016113281 L 306.0909118652344 329.4704284667969 L 308.1642150878906 327.3141174316406 L 308.8559265136719 326.5947265625 L 309.5767211914062 327.2849731445312 L 311.7373657226562 329.3540649414062 L 312.4608764648438 330.0469055175781 L 311.7667236328125 330.7691955566406 L 309.6944580078125 332.9255065917969 L 309.0029296875 333.6450805664062 Z" stroke="none"/>
          <path d="M 308.9734497070312 332.2326049804688 L 311.0457153320312 330.0762939453125 L 308.8850708007812 328.0072021484375 L 306.811767578125 330.1635131835938 L 308.9734497070312 332.2326049804688 M 309.0324401855469 335.0575866699219 L 303.9807434082031 330.2222595214844 L 308.8267822265625 325.1822204589844 L 313.8760375976562 330.0175476074219 L 309.0324401855469 335.0575866699219 Z" stroke="none" fill="#fff"/>
        </g>
        <g id="Path_115" data-name="Path 115" transform="translate(-290.987 -321.139)" fill="url(#radial-gradient-2)">
          <path d="M 334.5850524902344 337.4678039550781 L 333.8640747070312 336.7770080566406 L 331.7034301757812 334.7068176269531 L 330.9802551269531 334.0139465332031 L 331.6742553710938 333.2918395996094 L 333.74658203125 331.1355895996094 L 334.4384765625 330.4156799316406 L 335.159423828125 331.1064758300781 L 337.3200073242188 333.1766662597656 L 338.0431518554688 333.8695373535156 L 337.3491821289062 334.5916442871094 L 335.2769165039062 336.7478942871094 L 334.5850524902344 337.4678039550781 Z" stroke="none"/>
          <path d="M 334.555908203125 336.0549621582031 L 336.628173828125 333.8987121582031 L 334.4675903320312 331.8285217285156 L 332.395263671875 333.9847717285156 L 334.555908203125 336.0549621582031 M 334.6141662597656 338.8806457519531 L 329.5652770996094 334.0431213378906 L 334.4093627929688 329.0028381347656 L 339.4581298828125 333.8403625488281 L 334.6141662597656 338.8806457519531 Z" stroke="none" fill="#fff"/>
        </g>
        <g id="Path_116" data-name="Path 116" transform="translate(-265.448 -325.85)" fill="url(#radial-gradient-2)">
          <path d="M 297.5909423828125 344.2916259765625 L 296.8699951171875 343.6007995605469 L 294.7094116210938 341.5305480957031 L 293.9859008789062 340.8372802734375 L 294.6806030273438 340.1152038574219 L 296.7550659179688 337.9589538574219 L 297.4472961425781 337.2394104003906 L 298.1679077148438 337.9305419921875 L 300.3263549804688 340.0006713867188 L 301.0487976074219 340.6935424804688 L 300.3551940917969 341.4153137207031 L 298.2828369140625 343.5716857910156 L 297.5909423828125 344.2916259765625 Z" stroke="none"/>
          <path d="M 297.5618286132812 342.8787536621094 L 299.6341552734375 340.7223815917969 L 297.4757080078125 338.6522521972656 L 295.4012451171875 340.8085021972656 L 297.5618286132812 342.8787536621094 M 297.6200561523438 345.7044982910156 L 292.570556640625 340.8660888671875 L 297.4188842773438 335.8265991210938 L 302.4634399414062 340.6647338867188 L 297.6200561523438 345.7044982910156 Z" stroke="none" fill="#fff"/>
        </g>
        <g id="Path_117" data-name="Path 117" transform="translate(-281.611 -326.409)" fill="url(#radial-gradient-2)">
          <path d="M 321.0019226074219 345.1015625 L 320.2811584472656 344.4106140136719 L 318.1216125488281 342.3404846191406 L 317.3988037109375 341.6476135253906 L 318.0925903320312 340.9256896972656 L 320.1648559570312 338.7693786621094 L 320.856689453125 338.0494384765625 L 321.5776977539062 338.7402038574219 L 323.7383422851562 340.8103332519531 L 324.4617004394531 341.5033874511719 L 323.767333984375 342.2255249023438 L 321.6939697265625 344.3818359375 L 321.0019226074219 345.1015625 Z" stroke="none"/>
          <path d="M 320.97314453125 343.688720703125 L 323.0465087890625 341.5324096679688 L 320.8858642578125 339.4622802734375 L 318.8135986328125 341.6185913085938 L 320.97314453125 343.688720703125 M 321.0307006835938 346.514404296875 L 315.9839782714844 341.6766357421875 L 320.8275451660156 336.6365966796875 L 325.8768615722656 341.474365234375 L 321.0307006835938 346.514404296875 Z" stroke="none" fill="#fff"/>
        </g>
        <g id="Path_118" data-name="Path 118" transform="translate(-275.29 -333.364)" fill="url(#radial-gradient-2)">
          <path d="M 311.2065124511719 353.9239501953125 L 310.4855346679688 353.2330627441406 L 308.9658203125 351.7768249511719 L 308.2427673339844 351.083984375 L 308.9366455078125 350.3619079589844 L 310.39501953125 348.8443298339844 L 311.0869140625 348.1243591308594 L 311.8078918457031 348.815185546875 L 313.3276672363281 350.2713623046875 L 314.05078125 350.9642333984375 L 313.3568725585938 351.6863098144531 L 311.8984375 353.2039489746094 L 311.2065124511719 353.9239501953125 Z" stroke="none"/>
          <path d="M 311.1773986816406 352.5110473632812 L 312.6358337402344 350.993408203125 L 311.1160583496094 349.5372314453125 L 309.6576843261719 351.0548095703125 L 311.1773986816406 352.5110473632812 M 311.2356262207031 355.3368530273438 L 306.8278503417969 351.1131286621094 L 311.0577697753906 346.7114868164062 L 315.4657287597656 350.9350280761719 L 311.2356262207031 355.3368530273438 Z" stroke="none" fill="#fff"/>
        </g>
        <g id="Path_119" data-name="Path 119" transform="translate(-288.071 -335.915)" fill="url(#radial-gradient)">
          <path d="M 329.7196044921875 357.6179809570312 L 328.9988708496094 356.9273376464844 L 327.4791564941406 355.4710998535156 L 326.7555847167969 354.7777709960938 L 327.4504699707031 354.0556945800781 L 328.9098205566406 352.5392150878906 L 329.6014709472656 351.8204956054688 L 330.3219299316406 352.5102844238281 L 331.8417053222656 353.9653625488281 L 332.5656127929688 354.658447265625 L 331.8709411621094 355.3808288574219 L 330.4115295410156 356.8984680175781 L 329.7196044921875 357.6179809570312 Z" stroke="none"/>
          <path d="M 329.6907348632812 356.205322265625 L 331.150146484375 354.6876831054688 L 329.63037109375 353.2326049804688 L 328.1710205078125 354.7490844726562 L 329.6907348632812 356.205322265625 M 329.7485046386719 359.0306701660156 L 325.3401489257812 354.8064575195312 L 329.5725402832031 350.4083557128906 L 333.9810485839844 354.6292114257812 L 329.7485046386719 359.0306701660156 Z" stroke="none" fill="#fff"/>
        </g>
        <g id="Rectangle_8" data-name="Rectangle 8" transform="matrix(0.984, -0.18, 0.18, 0.984, 52.623, 7.297)" stroke="#fff" stroke-width="2" fill="url(#radial-gradient-9)">
          <rect width="4.793" height="4.785" stroke="none"/>
          <rect x="-1" y="-1" width="6.793" height="6.785" fill="none"/>
        </g>
        <g id="Rectangle_9" data-name="Rectangle 9" transform="translate(46.47 9.265) rotate(-10.377)" stroke="#fff" stroke-width="2" fill="url(#radial-gradient-10)">
          <rect width="3.845" height="3.839" stroke="none"/>
          <rect x="-1" y="-1" width="5.845" height="5.839" fill="none"/>
        </g>
        <g id="Rectangle_10" data-name="Rectangle 10" transform="translate(53.78 14.53) rotate(-10.392)" stroke="#fff" stroke-width="2" fill="url(#radial-gradient-11)">
          <rect width="3.845" height="3.838" stroke="none"/>
          <rect x="-1" y="-1" width="5.845" height="5.838" fill="none"/>
        </g>
        <g id="Rectangle_11" data-name="Rectangle 11" transform="matrix(0.984, -0.18, 0.18, 0.984, 48.565, 15.08)" stroke="#fff" stroke-width="2" fill="url(#radial-gradient-12)">
          <rect width="2.995" height="2.988" stroke="none"/>
          <rect x="-1" y="-1" width="4.995" height="4.988" fill="none"/>
        </g>
        <g id="Rectangle_12" data-name="Rectangle 12" transform="matrix(0.984, -0.18, 0.18, 0.984, 54.295, 20.665)" stroke="#fff" stroke-width="2" fill="url(#radial-gradient-13)">
          <rect width="2.994" height="2.988" stroke="none"/>
          <rect x="-1" y="-1" width="4.994" height="4.988" fill="none"/>
        </g>
        <g id="Rectangle_13" data-name="Rectangle 13" transform="matrix(0.984, -0.18, 0.18, 0.984, 44.151, 16.276)" stroke="#fff" stroke-width="2" fill="url(#radial-gradient-14)">
          <rect width="2.995" height="2.989" stroke="none"/>
          <rect x="-1" y="-1" width="4.995" height="4.989" fill="none"/>
        </g>
        <g id="Rectangle_14" data-name="Rectangle 14" transform="matrix(0.984, -0.18, 0.18, 0.984, 49.499, 20.126)" stroke="#fff" stroke-width="2" fill="url(#radial-gradient-13)">
          <rect width="2.994" height="2.988" stroke="none"/>
          <rect x="-1" y="-1" width="4.994" height="4.988" fill="none"/>
        </g>
        <g id="Rectangle_15" data-name="Rectangle 15" transform="translate(45.745 20.482) rotate(-10.388)" stroke="#fff" stroke-width="2" fill="url(#radial-gradient-16)">
          <rect width="2.107" height="2.103" stroke="none"/>
          <rect x="-1" y="-1" width="4.107" height="4.103" fill="none"/>
        </g>
        <g id="Rectangle_16" data-name="Rectangle 16" transform="translate(49.725 24.757) rotate(-10.359)" stroke="#fff" stroke-width="2" fill="url(#radial-gradient-17)">
          <rect width="2.106" height="2.102" stroke="none"/>
          <rect x="-1" y="-1" width="4.106" height="4.102" fill="none"/>
        </g>
        <g id="Path_120" data-name="Path 120" transform="translate(-342.653 -347.94)" fill="url(#radial-gradient)">
          <path d="M 412.0392456054688 378.3586730957031 L 411.1371459960938 377.9305114746094 L 406.807373046875 375.8753967285156 L 405.9023742675781 375.4458312988281 L 406.3335266113281 374.5415954589844 L 408.3939514160156 370.2203674316406 L 408.8237609863281 369.3189697265625 L 409.7257385253906 369.7475280761719 L 414.0533752441406 371.8036804199219 L 414.9575805664062 372.2332763671875 L 414.5270080566406 373.1370239257812 L 412.4687194824219 377.4572143554688 L 412.0392456054688 378.3586730957031 Z" stroke="none"/>
          <path d="M 409.2966003417969 370.6507568359375 L 407.2361755371094 374.9719848632812 L 411.5659484863281 377.027099609375 L 413.6242370605469 372.7069091796875 L 409.2966003417969 370.6507568359375 M 408.3508911132812 367.9871826171875 L 416.2909240722656 371.7596435546875 L 412.5125122070312 379.6902465820312 L 404.5685729980469 375.919677734375 L 408.3508911132812 367.9871826171875 Z" stroke="none" fill="#fff"/>
        </g>
        <g id="Path_121" data-name="Path 121" transform="translate(-329.863 -343.489)" fill="url(#radial-gradient)">
          <path d="M 392.6554870605469 370.6506958007812 L 391.7535095214844 370.2223815917969 L 388.2810363769531 368.5734558105469 L 387.3763732910156 368.1438903808594 L 387.8073120117188 367.2398376464844 L 389.4595336914062 363.7737731933594 L 389.8891906738281 362.8724365234375 L 390.7911682128906 363.3007507324219 L 394.2636413574219 364.9496765136719 L 395.1683044433594 365.3792419433594 L 394.7373657226562 366.2832946777344 L 393.0851440429688 369.7493591308594 L 392.6554870605469 370.6506958007812 Z" stroke="none"/>
          <path d="M 390.3622131347656 364.2040710449219 L 388.7099914550781 367.6701354980469 L 392.1824645996094 369.3190612792969 L 393.8346862792969 365.8529968261719 L 390.3622131347656 364.2040710449219 M 389.4161376953125 361.540771484375 L 396.501953125 364.905517578125 L 393.1285400390625 371.9823608398438 L 386.042724609375 368.6176147460938 L 389.4161376953125 361.540771484375 Z" stroke="none" fill="#fff"/>
        </g>
        <g id="Path_122" data-name="Path 122" transform="translate(-336.199 -362.524)" fill="url(#radial-gradient)">
          <path d="M 401.8342895507812 398.2226257324219 L 400.9324951171875 397.7947998046875 L 397.4589233398438 396.1469116210938 L 396.5538635253906 395.717529296875 L 396.9848022460938 394.8132019042969 L 398.6370849609375 391.3460388183594 L 399.066650390625 390.4446411132812 L 399.9686889648438 390.8728942871094 L 403.4421997070312 392.5219421386719 L 404.3470153808594 392.9514770507812 L 403.916015625 393.8555908203125 L 402.2637939453125 397.3215942382812 L 401.8342895507812 398.2226257324219 Z" stroke="none"/>
          <path d="M 399.5398254394531 391.7762451171875 L 397.8875427246094 395.243408203125 L 401.3611145019531 396.8912963867188 L 403.0133361816406 393.42529296875 L 399.5398254394531 391.7762451171875 M 398.593505859375 389.1130065917969 L 405.6806945800781 392.4776611328125 L 402.3074951171875 399.5539245605469 L 395.2201843261719 396.191650390625 L 398.593505859375 389.1130065917969 Z" stroke="none" fill="#fff"/>
        </g>
        <g id="Path_123" data-name="Path 123" transform="translate(-326.87 -356.729)" fill="url(#radial-gradient)">
          <path d="M 387.5508728027344 388.6965637207031 L 386.6490478515625 388.2684631347656 L 383.9445190429688 386.9845886230469 L 383.0398864746094 386.5551147460938 L 383.4706115722656 385.6510925292969 L 384.7566223144531 382.9519348144531 L 385.1860656738281 382.0505676269531 L 386.0881042480469 382.4786071777344 L 388.7937316894531 383.7624816894531 L 389.6988830566406 384.1920166015625 L 389.2676391601562 385.0963439941406 L 387.9805297851562 387.7955017089844 L 387.5508728027344 388.6965637207031 Z" stroke="none"/>
          <path d="M 385.6593933105469 383.3820495605469 L 384.3733825683594 386.0812072753906 L 387.0779113769531 387.3650817871094 L 388.3650207519531 384.6659240722656 L 385.6593933105469 383.3820495605469 M 384.7127380371094 380.7190856933594 L 391.0327758789062 383.7180786132812 L 388.0238342285156 390.0280456542969 L 381.7063903808594 387.029052734375 L 384.7127380371094 380.7190856933594 Z" stroke="none" fill="#fff"/>
        </g>
        <g id="Path_124" data-name="Path 124" transform="translate(-329.928 -374.287)" fill="url(#radial-gradient)">
          <path d="M 391.9800415039062 414.1309204101562 L 391.0784606933594 413.7027587890625 L 388.3750305175781 412.4188842773438 L 387.4703063964844 411.9892272949219 L 387.9013671875 411.0851440429688 L 389.1884155273438 408.385986328125 L 389.6180725097656 407.4849243164062 L 390.5198974609375 407.9130249023438 L 393.2244873046875 409.1968994140625 L 394.1297607421875 409.6266174316406 L 393.6981201171875 410.531005859375 L 392.409912109375 413.2301635742188 L 391.9800415039062 414.1309204101562 Z" stroke="none"/>
          <path d="M 390.091064453125 408.81640625 L 388.8040161132812 411.5155639648438 L 391.5074462890625 412.7994384765625 L 392.795654296875 410.1002807617188 L 390.091064453125 408.81640625 M 389.1451110839844 406.1534423828125 L 395.4638671875 409.1529846191406 L 392.45263671875 415.46240234375 L 386.1365661621094 412.4628601074219 L 389.1451110839844 406.1534423828125 Z" stroke="none" fill="#fff"/>
        </g>
        <g id="Path_125" data-name="Path 125" transform="translate(-317.325 -353.146)" fill="url(#radial-gradient)">
          <path d="M 373.7256164550781 383.5066528320312 L 372.8238220214844 383.0785522460938 L 370.1192321777344 381.794677734375 L 369.2142333984375 381.3650817871094 L 369.6454467773438 380.4608459472656 L 370.9326171875 377.7616882324219 L 371.3623046875 376.8606567382812 L 372.2640991210938 377.2887573242188 L 374.9686279296875 378.5726318359375 L 375.8735656738281 379.0022277832031 L 375.4423828125 379.9064331054688 L 374.1552734375 382.6055908203125 L 373.7256164550781 383.5066528320312 Z" stroke="none"/>
          <path d="M 371.8352355957031 378.192138671875 L 370.5480651855469 380.8912963867188 L 373.2526550292969 382.1751708984375 L 374.5397644042969 379.4760131835938 L 371.8352355957031 378.192138671875 M 370.8893432617188 375.5292053222656 L 377.2073669433594 378.5284423828125 L 374.1985778808594 384.8381042480469 L 367.8804016113281 381.8388671875 L 370.8893432617188 375.5292053222656 Z" stroke="none" fill="#fff"/>
        </g>
        <g id="Path_126" data-name="Path 126" transform="translate(-321.961 -367.068)" fill="url(#radial-gradient)">
          <path d="M 380.43896484375 403.6735229492188 L 379.537353515625 403.2453002929688 L 376.8339233398438 401.9613647460938 L 375.92919921875 401.5317077636719 L 376.3603210449219 400.6276550292969 L 377.6474304199219 397.9284973144531 L 378.0770874023438 397.0274353027344 L 378.9789123535156 397.4555358886719 L 381.6834411621094 398.7394104003906 L 382.5886840820312 399.1691589355469 L 382.1570739746094 400.0735168457031 L 380.8688659667969 402.7727355957031 L 380.43896484375 403.6735229492188 Z" stroke="none"/>
          <path d="M 378.550048828125 398.3589172363281 L 377.262939453125 401.0580749511719 L 379.9663696289062 402.3420104980469 L 381.2545776367188 399.6427917480469 L 378.550048828125 398.3589172363281 M 377.6041259765625 395.6959533691406 L 383.9227600097656 398.6954956054688 L 380.9115600585938 405.0050048828125 L 374.5954895019531 402.0053100585938 L 377.6041259765625 395.6959533691406 Z" stroke="none" fill="#fff"/>
        </g>
        <g id="Path_127" data-name="Path 127" transform="translate(-315.56 -362.825)" fill="url(#radial-gradient-25)">
          <path d="M 370.3653564453125 396.3461608886719 L 369.4639587402344 395.9184265136719 L 367.5618591308594 395.0158386230469 L 366.6565856933594 394.5862731933594 L 367.0880126953125 393.6818542480469 L 367.9938354492188 391.7829284667969 L 368.4236755371094 390.8817749023438 L 369.3255004882812 391.3102111816406 L 371.2276611328125 392.2138977050781 L 372.132568359375 392.6438293457031 L 371.7010192871094 393.5479125976562 L 370.7951354980469 395.4457702636719 L 370.3653564453125 396.3461608886719 Z" stroke="none"/>
          <path d="M 368.8963928222656 392.2134704589844 L 367.9905700683594 394.1123962402344 L 369.8926696777344 395.0149841308594 L 370.7985534667969 393.1171569824219 L 368.8963928222656 392.2134704589844 M 367.9509887695312 389.5500793457031 L 373.4665832519531 392.1704711914062 L 370.8380432128906 397.6773376464844 L 365.3226013183594 395.0601196289062 L 367.9509887695312 389.5500793457031 Z" stroke="none" fill="#fff"/>
        </g>
        <g id="Rectangle_17" data-name="Rectangle 17" transform="matrix(0.43, -0.903, 0.903, 0.43, 53.153, 37.077)" stroke="#fff" stroke-width="2" fill="url(#radial-gradient-26)">
          <rect width="2.103" height="2.106" stroke="none"/>
          <rect x="-1" y="-1" width="4.103" height="4.106" fill="none"/>
        </g>
        <g id="Path_128" data-name="Path 128" transform="translate(-343.077 -394.065)" fill="url(#radial-gradient)">
          <path d="M 409.7605285644531 445.3185729980469 L 409.2796936035156 444.4437561035156 L 406.9737243652344 440.2485046386719 L 406.4912109375 439.3706359863281 L 407.3699035644531 438.8896179199219 L 411.5726623535156 436.5890502929688 L 412.4483032226562 436.1097106933594 L 412.9291381835938 436.9844970703125 L 415.2351684570312 441.1796875 L 415.7177429199219 442.0575866699219 L 414.8390197753906 442.53857421875 L 410.6361999511719 444.8392333984375 L 409.7605285644531 445.3185729980469 Z" stroke="none"/>
          <path d="M 412.0528259277344 437.4662170410156 L 407.8500671386719 439.7668151855469 L 410.1560363769531 443.9620666503906 L 414.3588562011719 441.6614074707031 L 412.0528259277344 437.4662170410156 M 412.84375 434.7532348632812 L 417.0766296386719 442.4537353515625 L 409.3650512695312 446.6750793457031 L 405.13232421875 438.9744567871094 L 412.84375 434.7532348632812 Z" stroke="none" fill="#fff"/>
        </g>
        <g id="Path_129" data-name="Path 129" transform="translate(-336.431 -382.456)" fill="url(#radial-gradient)">
          <path d="M 399.6775207519531 427.2174987792969 L 399.1966247558594 426.3424987792969 L 397.3472595214844 422.9777526855469 L 396.8648376464844 422.1000366210938 L 397.7432861328125 421.6189880371094 L 401.114501953125 419.7728576660156 L 401.9902648925781 419.2933044433594 L 402.47119140625 420.1683044433594 L 404.320556640625 423.5331115722656 L 404.8029479980469 424.4108276367188 L 403.9244689941406 424.8918762207031 L 400.5532531738281 426.7379455566406 L 399.6775207519531 427.2174987792969 Z" stroke="none"/>
          <path d="M 401.5948181152344 420.6499633789062 L 398.2236022949219 422.49609375 L 400.0729675292969 425.86083984375 L 403.4441833496094 424.0147705078125 L 401.5948181152344 420.6499633789062 M 402.3856811523438 417.9366149902344 L 406.1617126464844 424.806884765625 L 399.2821044921875 428.5741577148438 L 395.5060729980469 421.7040100097656 L 402.3856811523438 417.9366149902344 Z" stroke="none" fill="#fff"/>
        </g>
        <g id="Path_130" data-name="Path 130" transform="translate(-330.409 -401.593)" fill="url(#radial-gradient)">
          <path d="M 390.9561157226562 454.9385681152344 L 390.4751281738281 454.0637512207031 L 388.6246643066406 450.6979064941406 L 388.1420288085938 449.8200073242188 L 389.0207824707031 449.3389587402344 L 392.3931884765625 447.4928283691406 L 393.2689819335938 447.0133972167969 L 393.7497863769531 447.8884582519531 L 395.5990905761719 451.2543029785156 L 396.081298828125 452.1319580078125 L 395.2029724121094 452.6129455566406 L 391.8317565917969 454.4590759277344 L 390.9561157226562 454.9385681152344 Z" stroke="none"/>
          <path d="M 392.8733520507812 448.3699951171875 L 389.5009765625 450.2161254882812 L 391.3514404296875 453.5819702148438 L 394.72265625 451.73583984375 L 392.8733520507812 448.3699951171875 M 393.6646118164062 445.6567687988281 L 397.43994140625 452.528076171875 L 390.560791015625 456.2951965332031 L 386.7831115722656 449.4238891601562 L 393.6646118164062 445.6567687988281 Z" stroke="none" fill="#fff"/>
        </g>
        <g id="Path_131" data-name="Path 131" transform="translate(-327.244 -390.968)" fill="url(#radial-gradient)">
          <path d="M 385.9586486816406 438.3935546875 L 385.4780578613281 437.5186767578125 L 384.0390930175781 434.899169921875 L 383.5570678710938 434.0216674804688 L 384.4351196289062 433.5406494140625 L 387.0599365234375 432.102783203125 L 387.9355163574219 431.6231689453125 L 388.4165954589844 432.4979248046875 L 389.8577575683594 435.1184387207031 L 390.3407592773438 435.9966735839844 L 389.46142578125 436.4776611328125 L 386.8344116210938 437.91455078125 L 385.9586486816406 438.3935546875 Z" stroke="none"/>
          <path d="M 387.5403747558594 432.9798278808594 L 384.9155578613281 434.4176940917969 L 386.3545227050781 437.0372009277344 L 388.9815368652344 435.6003112792969 L 387.5403747558594 432.9798278808594 M 388.3306579589844 430.2664794921875 L 391.7000122070312 436.3930358886719 L 385.5627746582031 439.7498779296875 L 382.1985473632812 433.6256408691406 L 388.3306579589844 430.2664794921875 Z" stroke="none" fill="#fff"/>
        </g>
        <g id="Path_132" data-name="Path 132" transform="translate(-319.431 -406.994)" fill="url(#radial-gradient)">
          <path d="M 374.642822265625 461.6080017089844 L 374.1620178222656 460.7334289550781 L 372.7219543457031 458.1139831542969 L 372.2394104003906 457.2362060546875 L 373.1179809570312 456.755126953125 L 375.743896484375 455.3172302246094 L 376.6196899414062 454.8377075195312 L 377.1005859375 455.7127380371094 L 378.5406494140625 458.333251953125 L 379.0231018066406 459.2112121582031 L 378.1442565917969 459.6921081542969 L 375.5183410644531 461.1289367675781 L 374.642822265625 461.6080017089844 Z" stroke="none"/>
          <path d="M 376.2241821289062 456.1943664550781 L 373.5982666015625 457.6322326660156 L 375.038330078125 460.2516784667969 L 377.6642456054688 458.8148498535156 L 376.2241821289062 456.1943664550781 M 377.0151977539062 453.4810180664062 L 380.3819885253906 459.6076049804688 L 374.247314453125 462.9643249511719 L 370.8805236816406 456.8401794433594 L 377.0151977539062 453.4810180664062 Z" stroke="none" fill="#fff"/>
        </g>
        <g id="Path_133" data-name="Path 133" transform="translate(-321.603 -382.49)" fill="url(#radial-gradient)">
          <path d="M 377.7893676757812 426.1137390136719 L 377.3086242675781 425.2385864257812 L 375.8685607910156 422.6169738769531 L 375.3863220214844 421.7390747070312 L 376.2650146484375 421.2582702636719 L 378.8909912109375 419.8213806152344 L 379.7664184570312 419.3423461914062 L 380.2472534179688 420.216796875 L 381.6882934570312 422.83740234375 L 382.1710815429688 423.7153625488281 L 381.2921752929688 424.1964416503906 L 378.6652221679688 425.6343078613281 L 377.7893676757812 426.1137390136719 Z" stroke="none"/>
          <path d="M 379.3710021972656 420.6986389160156 L 376.7450256347656 422.1355285644531 L 378.1850891113281 424.7571105957031 L 380.8120422363281 423.3192443847656 L 379.3710021972656 420.6986389160156 M 380.1618347167969 417.986083984375 L 383.5301208496094 424.1114807128906 L 377.3936157226562 427.4703369140625 L 374.027587890625 421.3426208496094 L 380.1618347167969 417.986083984375 Z" stroke="none" fill="#fff"/>
        </g>
        <g id="Path_134" data-name="Path 134" transform="translate(-317.201 -396.487)" fill="url(#radial-gradient)">
          <path d="M 371.4131469726562 446.3877258300781 L 370.9323425292969 445.51318359375 L 369.4921875 442.8937377929688 L 369.0096130371094 442.0159301757812 L 369.8882141113281 441.5348510742188 L 372.5142517089844 440.0968933105469 L 373.3901062011719 439.6173400878906 L 373.8709411621094 440.4924621582031 L 375.3108825683594 443.1130676269531 L 375.7933044433594 443.9910583496094 L 374.9144897460938 444.4718933105469 L 372.2886352539062 445.9086608886719 L 371.4131469726562 446.3877258300781 Z" stroke="none"/>
          <path d="M 372.9945373535156 440.9740295410156 L 370.3684997558594 442.4119567871094 L 371.8086242675781 445.0314025878906 L 374.4344787597656 443.5946350097656 L 372.9945373535156 440.9740295410156 M 373.78564453125 438.2606506347656 L 377.1521301269531 444.387451171875 L 371.0176391601562 447.7440185546875 L 367.6507263183594 441.6199035644531 L 373.78564453125 438.2606506347656 Z" stroke="none" fill="#fff"/>
        </g>
        <g id="Path_135" data-name="Path 135" transform="translate(-315.543 -388.813)" fill="url(#radial-gradient)">
          <path d="M 368.5850219726562 434.0680847167969 L 368.1041259765625 433.1936645507812 L 367.090576171875 431.3507690429688 L 366.6077575683594 430.472900390625 L 367.4865417480469 429.9917297363281 L 369.3337707519531 428.9803161621094 L 370.2098693847656 428.5006408691406 L 370.6905822753906 429.3761596679688 L 371.7030334472656 431.2200927734375 L 372.1849975585938 432.0978698730469 L 371.3065795898438 432.57861328125 L 369.46044921875 433.5889892578125 L 368.5850219726562 434.0680847167969 Z" stroke="none"/>
          <path d="M 369.8140258789062 429.8574523925781 L 367.966796875 430.8688659667969 L 368.9803466796875 432.7117614746094 L 370.8264770507812 431.7013854980469 L 369.8140258789062 429.8574523925781 M 370.6056823730469 427.1438293457031 L 373.5435180664062 432.4943237304688 L 368.1897277832031 435.4244079589844 L 365.2487182617188 430.0769348144531 L 370.6056823730469 427.1438293457031 Z" stroke="none" fill="#fff"/>
        </g>
        <g id="Path_136" data-name="Path 136" transform="translate(-309.279 -400.22)" fill="url(#radial-gradient)">
          <path d="M 359.5088195800781 450.5920104980469 L 359.0282287597656 449.7171936035156 L 358.0157775878906 447.8742980957031 L 357.5335693359375 446.99658203125 L 358.4119873046875 446.5156555175781 L 360.2592163085938 445.5043029785156 L 361.1353149414062 445.024658203125 L 361.6159973144531 445.9001770019531 L 362.6283874511719 447.7440185546875 L 363.1104431152344 448.6219787597656 L 362.2317199707031 449.1026306152344 L 360.3845520019531 450.1130065917969 L 359.5088195800781 450.5920104980469 Z" stroke="none"/>
          <path d="M 360.7394409179688 446.3814392089844 L 358.8922119140625 447.3927917480469 L 359.9046630859375 449.2356872558594 L 361.7518310546875 448.2253112792969 L 360.7394409179688 446.3814392089844 M 361.5311584472656 443.6678466796875 L 364.4690551757812 449.0186767578125 L 359.1130065917969 451.9483337402344 L 356.1749267578125 446.6003723144531 L 361.5311584472656 443.6678466796875 Z" stroke="none" fill="#fff"/>
        </g>
        <g id="Rectangle_18" data-name="Rectangle 18" transform="matrix(0.123, -0.992, 0.992, 0.123, 53.393, 65.702)" stroke="#fff" stroke-width="2" fill="url(#radial-gradient-36)">
          <rect width="4.785" height="4.794" stroke="none"/>
          <rect x="-1" y="-1" width="6.785" height="6.794" fill="none"/>
        </g>
        <g id="Rectangle_19" data-name="Rectangle 19" transform="matrix(0.123, -0.992, 0.992, 0.123, 54.412, 58.429)" stroke="#fff" stroke-width="2" fill="url(#radial-gradient-37)">
          <rect width="3.838" height="3.845" stroke="none"/>
          <rect x="-1" y="-1" width="5.838" height="5.845" fill="none"/>
        </g>
        <g id="Rectangle_20" data-name="Rectangle 20" transform="matrix(0.123, -0.992, 0.992, 0.123, 47.189, 63.813)" stroke="#fff" stroke-width="2" fill="url(#radial-gradient-38)">
          <rect width="3.839" height="3.846" stroke="none"/>
          <rect x="-1" y="-1" width="5.839" height="5.846" fill="none"/>
        </g>
        <g id="Rectangle_21" data-name="Rectangle 21" transform="translate(49.176 57.945) rotate(-82.955)" stroke="#fff" stroke-width="2" fill="url(#radial-gradient-39)">
          <rect width="2.989" height="2.994" stroke="none"/>
          <rect x="-1" y="-1" width="4.989" height="4.994" fill="none"/>
        </g>
        <g id="Rectangle_22" data-name="Rectangle 22" transform="translate(42.12 61.729) rotate(-82.955)" stroke="#fff" stroke-width="2" fill="url(#radial-gradient-40)">
          <rect width="2.989" height="2.995" stroke="none"/>
          <rect x="-1" y="-1" width="4.989" height="4.995" fill="none"/>
        </g>
        <g id="Rectangle_23" data-name="Rectangle 23" transform="translate(49.353 53.384) rotate(-82.937)" stroke="#fff" stroke-width="2" fill="url(#radial-gradient-41)">
          <rect width="2.99" height="2.995" stroke="none"/>
          <rect x="-1" y="-1" width="4.99" height="4.995" fill="none"/>
        </g>
        <g id="Rectangle_24" data-name="Rectangle 24" transform="translate(44.071 57.322) rotate(-82.937)" stroke="#fff" stroke-width="2" fill="url(#radial-gradient-42)">
          <rect width="2.989" height="2.995" stroke="none"/>
          <rect x="-1" y="-1" width="4.989" height="4.995" fill="none"/>
        </g>
        <g id="Rectangle_25" data-name="Rectangle 25" transform="matrix(0.123, -0.992, 0.992, 0.123, 45.846, 52.871)" stroke="#fff" stroke-width="2" fill="url(#radial-gradient-39)">
          <rect width="2.102" height="2.105" stroke="none"/>
          <rect x="-1" y="-1" width="4.102" height="4.105" fill="none"/>
        </g>
        <g id="Rectangle_26" data-name="Rectangle 26" transform="matrix(0.123, -0.992, 0.992, 0.123, 40.567, 55.379)" stroke="#fff" stroke-width="2" fill="url(#radial-gradient-44)">
          <rect width="2.102" height="2.107" stroke="none"/>
          <rect x="-1" y="-1" width="4.102" height="4.107" fill="none"/>
        </g>
        <g id="Path_137" data-name="Path 137" transform="translate(-272.304 -446.719)" fill="url(#radial-gradient)">
          <path d="M 308.8982849121094 521.912109375 L 308.1662292480469 521.23388671875 L 304.6528625488281 517.9789428710938 L 303.9178771972656 517.2980346679688 L 304.6001586914062 516.5643920898438 L 307.8614501953125 513.0574340820312 L 308.541259765625 512.326416015625 L 309.2734680175781 513.0049438476562 L 312.7869567871094 516.2609252929688 L 313.5218200683594 516.94189453125 L 312.8394165039062 517.6754760742188 L 309.5780029296875 521.181396484375 L 308.8982849121094 521.912109375 Z" stroke="none"/>
          <path d="M 308.59375 513.7384033203125 L 305.3324584960938 517.245361328125 L 308.8458251953125 520.5003051757812 L 312.1072387695312 516.994384765625 L 308.59375 513.7384033203125 M 308.4888000488281 510.9143676757812 L 314.9364318847656 516.8894653320312 L 308.9507446289062 523.3238525390625 L 302.5033264160156 517.3507080078125 L 308.4888000488281 510.9143676757812 Z" stroke="none" fill="#fff"/>
        </g>
        <g id="Path_138" data-name="Path 138" transform="translate(-270.861 -297.308)" fill="url(#radial-gradient)">
          <path d="M 306.8081359863281 305.4813842773438 L 306.0760803222656 304.8031616210938 L 302.5626525878906 301.5482177734375 L 301.8276672363281 300.8673095703125 L 302.5099792480469 300.1336364746094 L 305.7713317871094 296.6267395019531 L 306.4511108398438 295.895751953125 L 307.1833190917969 296.5742492675781 L 310.6968078613281 299.8301696777344 L 311.4317016601562 300.5111999511719 L 310.749267578125 301.2447814941406 L 307.4878540039062 304.7507019042969 L 306.8081359863281 305.4813842773438 Z" stroke="none"/>
          <path d="M 306.5036010742188 297.3077392578125 L 303.2422485351562 300.8146362304688 L 306.7556762695312 304.069580078125 L 310.01708984375 300.5636596679688 L 306.5036010742188 297.3077392578125 M 306.3986511230469 294.4837646484375 L 312.8462829589844 300.458740234375 L 306.860595703125 306.8931579589844 L 300.4130859375 300.9199829101562 L 306.3986511230469 294.4837646484375 Z" stroke="none" fill="#fff"/>
        </g>
        <g id="Path_139" data-name="Path 139" transform="translate(-283.649 -436.444)" fill="url(#radial-gradient)">
          <path d="M 324.6377258300781 505.6903076171875 L 323.9057006835938 505.0122375488281 L 321.0870056152344 502.4013366699219 L 320.3519592285156 501.720458984375 L 321.0342712402344 500.9867248535156 L 323.6504821777344 498.1733703613281 L 324.3302612304688 497.4423522949219 L 325.0624694824219 498.120849609375 L 327.8811950683594 500.7327880859375 L 328.6161499023438 501.4137878417969 L 327.9336853027344 502.1473999023438 L 325.3174133300781 504.959716796875 L 324.6377258300781 505.6903076171875 Z" stroke="none"/>
          <path d="M 324.3827819824219 498.8543395996094 L 321.7665710449219 501.6676940917969 L 324.5852355957031 504.2785949707031 L 327.2015075683594 501.4662780761719 L 324.3827819824219 498.8543395996094 M 324.2777404785156 496.0303649902344 L 330.03076171875 501.361328125 L 324.6902465820312 507.10205078125 L 318.9373474121094 501.773193359375 L 324.2777404785156 496.0303649902344 Z" stroke="none" fill="#fff"/>
        </g>
        <g id="Path_140" data-name="Path 140" transform="translate(-263.554 -436.777)" fill="url(#radial-gradient)">
          <path d="M 295.5283813476562 506.1722412109375 L 294.7964782714844 505.4943237304688 L 291.9778137207031 502.8834838867188 L 291.2427368164062 502.2026062011719 L 291.925048828125 501.4688720703125 L 294.541259765625 498.655517578125 L 295.2208862304688 497.9246520996094 L 295.9530944824219 498.6028442382812 L 298.7729187011719 501.2147216796875 L 299.50830078125 501.8958740234375 L 298.8254089355469 502.629638671875 L 296.2080383300781 505.4419555664062 L 295.5283813476562 506.1722412109375 Z" stroke="none"/>
          <path d="M 295.2735595703125 499.3364868164062 L 292.6573486328125 502.1498413085938 L 295.4760131835938 504.7606811523438 L 298.0933837890625 501.9483642578125 L 295.2735595703125 499.3364868164062 M 295.1682434082031 496.5128173828125 L 300.9232482910156 501.8433837890625 L 295.5807189941406 507.5838317871094 L 289.8280944824219 502.2553405761719 L 295.1682434082031 496.5128173828125 Z" stroke="none" fill="#fff"/>
        </g>
        <g id="Path_141" data-name="Path 141" transform="translate(-274.816 -430.14)" fill="url(#radial-gradient)">
          <path d="M 311.2174987792969 495.3576354980469 L 310.4855651855469 494.67919921875 L 308.2915954589844 492.6456298828125 L 307.556884765625 491.9646606445312 L 308.2391357421875 491.2311706542969 L 310.2759094238281 489.0414733886719 L 310.9555969238281 488.3107299804688 L 311.6877136230469 488.9889526367188 L 313.8827819824219 491.0224609375 L 314.6180419921875 491.7035827636719 L 313.9352416992188 492.4373168945312 L 311.8973693847656 494.6270446777344 L 311.2174987792969 495.3576354980469 Z" stroke="none"/>
          <path d="M 311.0081176757812 489.7225341796875 L 308.9713745117188 491.9122314453125 L 311.1653442382812 493.94580078125 L 313.2031860351562 491.7560424804688 L 311.0081176757812 489.7225341796875 M 310.903076171875 486.89892578125 L 316.0328979492188 491.651123046875 L 311.2696533203125 496.7694702148438 L 306.1423950195312 492.01708984375 L 310.903076171875 486.89892578125 Z" stroke="none" fill="#fff"/>
        </g>
        <g id="Path_142" data-name="Path 142" transform="translate(-257.117 -427.793)" fill="url(#radial-gradient-2)">
          <path d="M 285.5806884765625 491.9598083496094 L 284.8482055664062 491.2808532714844 L 282.6531066894531 489.2462768554688 L 281.9183959960938 488.5652770996094 L 282.6006774902344 487.831787109375 L 284.6374206542969 485.64208984375 L 285.3172607421875 484.9111633300781 L 286.0494079589844 485.5897216796875 L 288.2434387207031 487.6232299804688 L 288.977783203125 488.3038635253906 L 288.2962341308594 489.037353515625 L 286.2605285644531 491.2281494140625 L 285.5806884765625 491.9598083496094 Z" stroke="none"/>
          <path d="M 285.36962890625 486.3231506347656 L 283.3328857421875 488.5128479003906 L 285.5279846191406 490.5474548339844 L 287.5636596679688 488.3566589355469 L 285.36962890625 486.3231506347656 M 285.2649230957031 483.4991760253906 L 290.3919067382812 488.2510681152344 L 285.6334228515625 493.3721618652344 L 280.50390625 488.6177062988281 L 285.2649230957031 483.4991760253906 Z" stroke="none" fill="#fff"/>
        </g>
        <g id="Path_143" data-name="Path 143" transform="translate(-281.099 -422.127)" fill="url(#radial-gradient)">
          <path d="M 320.3185119628906 483.7496643066406 L 319.5865783691406 483.0713195800781 L 317.392578125 481.0379028320312 L 316.6578369140625 480.3569030761719 L 317.340087890625 479.6233825683594 L 319.3768310546875 477.4336242675781 L 320.0565490722656 476.702880859375 L 320.7886657714844 477.381103515625 L 322.9837951660156 479.4146728515625 L 323.7190856933594 480.0958251953125 L 323.0362243652344 480.8295288085938 L 320.9983825683594 483.0191650390625 L 320.3185119628906 483.7496643066406 Z" stroke="none"/>
          <path d="M 320.1090698242188 478.1146850585938 L 318.0723266601562 480.304443359375 L 320.266357421875 482.337890625 L 322.30419921875 480.1482543945312 L 320.1090698242188 478.1146850585938 M 320.0040283203125 475.2910461425781 L 325.1339416503906 480.0433959960938 L 320.3706665039062 485.1614379882812 L 315.2433166503906 480.4093933105469 L 320.0040283203125 475.2910461425781 Z" stroke="none" fill="#fff"/>
        </g>
        <g id="Path_144" data-name="Path 144" transform="translate(-266.403 -422.37)" fill="url(#radial-gradient)">
          <path d="M 299.0308837890625 484.1014709472656 L 298.2989501953125 483.4230346679688 L 296.10498046875 481.3894653320312 L 295.3702697753906 480.70849609375 L 296.0525512695312 479.9749755859375 L 298.0892944335938 477.7853393554688 L 298.7689819335938 477.0546569824219 L 299.5010986328125 477.7328186035156 L 301.6961669921875 479.7662658691406 L 302.4314270019531 480.4474182128906 L 301.7486267089844 481.1811218261719 L 299.7107543945312 483.3708801269531 L 299.0308837890625 484.1014709472656 Z" stroke="none"/>
          <path d="M 298.8215026855469 478.4664306640625 L 296.7847595214844 480.6560668945312 L 298.9787292480469 482.6896362304688 L 301.0165710449219 480.4998779296875 L 298.8215026855469 478.4664306640625 M 298.7164611816406 475.6428527832031 L 303.8462829589844 480.3949584960938 L 299.0830383300781 485.5133056640625 L 293.9557800292969 480.7608947753906 L 298.7164611816406 475.6428527832031 Z" stroke="none" fill="#fff"/>
        </g>
        <g id="Path_145" data-name="Path 145" transform="translate(-275.428 -418.078)" fill="url(#radial-gradient-2)">
          <path d="M 311.4539489746094 476.6342163085938 L 310.7217712402344 475.9556884765625 L 309.1783142089844 474.5253295898438 L 308.4437561035156 473.8446350097656 L 309.1255493164062 473.111083984375 L 310.5580444335938 471.56982421875 L 311.2380981445312 470.838134765625 L 311.9705200195312 471.5173950195312 L 313.513916015625 472.9487915039062 L 314.2481689453125 473.6297607421875 L 313.5661926269531 474.363037109375 L 312.1337585449219 475.9032592773438 L 311.4539489746094 476.6342163085938 Z" stroke="none"/>
          <path d="M 311.29052734375 472.2506103515625 L 309.8580322265625 473.7918701171875 L 311.4014892578125 475.2222290039062 L 312.8339233398438 473.6820068359375 L 311.29052734375 472.2506103515625 M 311.1856994628906 469.4256591796875 L 315.6623840332031 473.5774841308594 L 311.5063781738281 478.0462036132812 L 307.0295104980469 473.8973693847656 L 311.1856994628906 469.4256591796875 Z" stroke="none" fill="#fff"/>
        </g>
        <g id="Path_146" data-name="Path 146" transform="translate(-262.605 -415.743)" fill="url(#radial-gradient)">
          <path d="M 292.8783874511719 473.2496337890625 L 292.146484375 472.5713500976562 L 290.6030883789062 471.1409912109375 L 289.8680725097656 470.4598083496094 L 290.5508422851562 469.7262268066406 L 291.984375 468.1860046386719 L 292.6641845703125 467.4555969238281 L 293.3960571289062 468.1338195800781 L 294.9395751953125 469.5641174316406 L 295.6747131347656 470.2453308105469 L 294.9918823242188 470.9789428710938 L 293.5582275390625 472.5191955566406 L 292.8783874511719 473.2496337890625 Z" stroke="none"/>
          <path d="M 292.7163696289062 468.8673095703125 L 291.2828369140625 470.4075317382812 L 292.8262329101562 471.837890625 L 294.2598876953125 470.297607421875 L 292.7163696289062 468.8673095703125 M 292.6119689941406 466.0439147949219 L 297.0895385742188 470.1930236816406 L 292.9305114746094 474.6613464355469 L 288.4533081054688 470.5120544433594 L 292.6119689941406 466.0439147949219 Z" stroke="none" fill="#fff"/>
        </g>
        <g id="Rectangle_27" data-name="Rectangle 27" transform="matrix(0.981, -0.197, 0.197, 0.981, 13.686, 62.548)" stroke="#fff" stroke-width="2" fill="url(#radial-gradient-55)">
          <rect width="4.794" height="4.785" stroke="none"/>
          <rect x="-1" y="-1" width="6.794" height="6.785" fill="none"/>
        </g>
        <g id="Rectangle_28" data-name="Rectangle 28" transform="translate(20.922 61.219) rotate(-11.326)" stroke="#fff" stroke-width="2" fill="url(#radial-gradient-56)">
          <rect width="3.845" height="3.839" stroke="none"/>
          <rect x="-1" y="-1" width="5.845" height="5.839" fill="none"/>
        </g>
        <g id="Rectangle_29" data-name="Rectangle 29" transform="translate(13.524 56.077) rotate(-11.342)" stroke="#fff" stroke-width="2" fill="url(#radial-gradient-57)">
          <rect width="3.845" height="3.839" stroke="none"/>
          <rect x="-1" y="-1" width="5.845" height="5.839" fill="none"/>
        </g>
        <g id="Rectangle_30" data-name="Rectangle 30" transform="translate(19.731 56.107) rotate(-11.326)" stroke="#fff" stroke-width="2" fill="url(#radial-gradient-58)">
          <rect width="2.994" height="2.989" stroke="none"/>
          <rect x="-1" y="-1" width="4.994" height="4.989" fill="none"/>
        </g>
        <g id="Rectangle_31" data-name="Rectangle 31" transform="translate(24.124 54.837) rotate(-11.326)" stroke="#fff" stroke-width="2" fill="url(#radial-gradient-59)">
          <rect width="2.994" height="2.99" stroke="none"/>
          <rect x="-1" y="-1" width="4.994" height="4.99" fill="none"/>
        </g>
        <g id="Rectangle_32" data-name="Rectangle 32" transform="translate(18.714 51.076) rotate(-11.326)" stroke="#fff" stroke-width="2" fill="url(#radial-gradient-60)">
          <rect width="2.994" height="2.989" stroke="none"/>
          <rect x="-1" y="-1" width="4.994" height="4.989" fill="none"/>
        </g>
        <g id="Rectangle_33" data-name="Rectangle 33" transform="translate(23.505 51.353) rotate(-11.317)" stroke="#fff" stroke-width="2" fill="url(#radial-gradient-60)">
          <rect width="2.107" height="2.102" stroke="none"/>
          <rect x="-1" y="-1" width="4.107" height="4.102" fill="none"/>
        </g>
        <g id="Rectangle_34" data-name="Rectangle 34" transform="translate(19.455 47.144) rotate(-11.345)" stroke="#fff" stroke-width="2" fill="url(#radial-gradient-62)">
          <rect width="2.106" height="2.102" stroke="none"/>
          <rect x="-1" y="-1" width="4.106" height="4.102" fill="none"/>
        </g>
        <g id="Path_147" data-name="Path 147" transform="translate(-200.207 -397.138)" fill="url(#radial-gradient)">
          <path d="M 205.7543334960938 449.5788879394531 L 204.8453369140625 449.1655578613281 L 200.4821166992188 447.1816101074219 L 199.5704803466797 446.76708984375 L 199.986328125 445.8560485839844 L 201.9735412597656 441.5025329589844 L 202.38818359375 440.5941467285156 L 203.2971801757812 441.0074768066406 L 207.660400390625 442.9914245605469 L 208.5720367431641 443.4059448242188 L 208.1561889648438 444.3169860839844 L 206.1689758300781 448.6705017089844 L 205.7543334960938 449.5788879394531 Z" stroke="none"/>
          <path d="M 205.2592620849609 448.2552490234375 L 207.2464752197266 443.9017333984375 L 202.8832550048828 441.9177856445312 L 200.8960418701172 446.2713012695312 L 205.2592620849609 448.2552490234375 M 206.2493896484375 450.9024963378906 L 198.2449035644531 447.2628784179688 L 201.8931274414062 439.2705383300781 L 209.8976135253906 442.91015625 L 206.2493896484375 450.9024963378906 Z" stroke="none" fill="#fff"/>
        </g>
        <g id="Path_148" data-name="Path 148" transform="translate(-215.901 -404.157)" fill="url(#radial-gradient)">
          <path d="M 227.6249237060547 458.4924621582031 L 226.7159729003906 458.0793762207031 L 223.2154541015625 456.4885559082031 L 222.3033752441406 456.0740661621094 L 222.7195434570312 455.1627502441406 L 224.3147125244141 451.6698303222656 L 224.7294006347656 450.7617797851562 L 225.6381683349609 451.1748657226562 L 229.1375885009766 452.765625 L 230.0492858886719 453.1800842285156 L 229.6334991455078 454.0911560058594 L 228.0394439697266 457.5841369628906 L 227.6249237060547 458.4924621582031 Z" stroke="none"/>
          <path d="M 227.1296997070312 457.1689758300781 L 228.7237548828125 453.6759948730469 L 225.2243347167969 452.0852355957031 L 223.6291809082031 455.5781555175781 L 227.1296997070312 457.1689758300781 M 228.1201629638672 459.8159484863281 L 220.9775543212891 456.5699462890625 L 224.2344512939453 449.4383239746094 L 231.3748168945312 452.6841735839844 L 228.1201629638672 459.8159484863281 Z" stroke="none" fill="#fff"/>
        </g>
        <g id="Path_149" data-name="Path 149" transform="translate(-209.249 -385.227)" fill="url(#radial-gradient)">
          <path d="M 217.9879302978516 431.0723571777344 L 217.0791320800781 430.6592102050781 L 213.5797424316406 429.0683288574219 L 212.6681976318359 428.6539306640625 L 213.0838165283203 427.742919921875 L 214.6778717041016 424.2489013671875 L 215.0924377441406 423.3402099609375 L 216.0016326904297 423.7536926269531 L 219.5021514892578 425.3456115722656 L 220.4138946533203 425.7602233886719 L 219.9978179931641 426.6712951660156 L 218.4026184082031 430.1642761230469 L 217.9879302978516 431.0723571777344 Z" stroke="none"/>
          <path d="M 217.4929962158203 429.7488708496094 L 219.0881805419922 426.2558898925781 L 215.5876617431641 424.6639709472656 L 213.9936065673828 428.1579895019531 L 217.4929962158203 429.7488708496094 M 218.4828491210938 432.3958435058594 L 211.3427886962891 429.1498718261719 L 214.5972290039062 422.0164489746094 L 221.7395935058594 425.2645568847656 L 218.4828491210938 432.3958435058594 Z" stroke="none" fill="#fff"/>
        </g>
        <g id="Rectangle_35" data-name="Rectangle 35" transform="translate(10.115 45.805) rotate(-65.484)" stroke="#fff" stroke-width="2" fill="url(#radial-gradient-66)">
          <rect width="2.99" height="2.993" stroke="none"/>
          <rect x="-1" y="-1" width="4.99" height="4.993" fill="none"/>
        </g>
        <g id="Path_150" data-name="Path 150" transform="translate(-229.347 -408.527)" fill="url(#radial-gradient)">
          <path d="M 246.3269653320312 463.6962890625 L 245.4181518554688 463.283203125 L 242.6931610107422 462.0445556640625 L 241.7812347412109 461.6300354003906 L 242.1973114013672 460.7188110351562 L 243.4391632080078 457.9992065429688 L 243.8538208007812 457.0911254882812 L 244.7626037597656 457.5042114257812 L 247.4876403808594 458.7427978515625 L 248.3995971679688 459.1572875976562 L 247.9835052490234 460.0685424804688 L 246.7416229248047 462.7882080078125 L 246.3269653320312 463.6962890625 Z" stroke="none"/>
          <path d="M 245.8319702148438 462.3728332519531 L 247.0738525390625 459.6531677246094 L 244.3488159179688 458.4145812988281 L 243.1069641113281 461.1341857910156 L 245.8319702148438 462.3728332519531 M 246.8219451904297 465.0197448730469 L 240.4554901123047 462.1258850097656 L 243.3588256835938 455.7677001953125 L 249.725341796875 458.6614379882812 L 246.8219451904297 465.0197448730469 Z" stroke="none" fill="#fff"/>
        </g>
        <g id="Rectangle_36" data-name="Rectangle 36" transform="translate(8.612 37.953) rotate(-65.476)" stroke="#fff" stroke-width="2" fill="url(#radial-gradient-68)">
          <rect width="2.99" height="2.993" stroke="none"/>
          <rect x="-1" y="-1" width="4.99" height="4.993" fill="none"/>
        </g>
        <g id="Rectangle_37" data-name="Rectangle 37" transform="translate(14.421 47.341) rotate(-65.476)" stroke="#fff" stroke-width="2" fill="url(#radial-gradient-68)">
          <rect width="2.99" height="2.993" stroke="none"/>
          <rect x="-1" y="-1" width="4.99" height="4.993" fill="none"/>
        </g>
        <g id="Rectangle_38" data-name="Rectangle 38" transform="translate(12.238 41.131) rotate(-65.457)" stroke="#fff" stroke-width="2" fill="url(#radial-gradient-70)">
          <rect width="2.99" height="2.993" stroke="none"/>
          <rect x="-1" y="-1" width="4.99" height="4.993" fill="none"/>
        </g>
        <g id="Path_151" data-name="Path 151" transform="translate(-235.074 -389.684)" fill="url(#radial-gradient)">
          <path d="M 253.8152465820312 435.2276916503906 L 252.906494140625 434.814697265625 L 250.9892883300781 433.943359375 L 250.0774383544922 433.5289306640625 L 250.4933166503906 432.6177368164062 L 251.3668518066406 430.7037963867188 L 251.7816009521484 429.7951049804688 L 252.6907653808594 430.2088317871094 L 254.6079559326172 431.0812683105469 L 255.5193481445312 431.4960021972656 L 255.1033935546875 432.4068603515625 L 254.2298889160156 434.3197021484375 L 253.8152465820312 435.2276916503906 Z" stroke="none"/>
          <path d="M 253.3202514648438 433.904296875 L 254.1937561035156 431.991455078125 L 252.2765808105469 431.1190185546875 L 251.4030456542969 433.032958984375 L 253.3202514648438 433.904296875 M 254.3102416992188 436.5510864257812 L 248.7518463134766 434.02490234375 L 251.28662109375 428.47119140625 L 256.8449401855469 431.0005493164062 L 254.3102416992188 436.5510864257812 Z" stroke="none" fill="#fff"/>
        </g>
        <g id="Path_152" data-name="Path 152" transform="translate(-233.254 -376.802)" fill="url(#radial-gradient)">
          <path d="M 251.1792297363281 416.5679931640625 L 250.2703094482422 416.1549377441406 L 248.3530731201172 415.2836608886719 L 247.4411926269531 414.8692626953125 L 247.8570709228516 413.9580383300781 L 248.7306365966797 412.0440368652344 L 249.1451873779297 411.1357727050781 L 250.0541229248047 411.5488586425781 L 251.9713287353516 412.4201965332031 L 252.8831787109375 412.8346252441406 L 252.4673004150391 413.7458190917969 L 251.5937652587891 415.6597595214844 L 251.1792297363281 416.5679931640625 Z" stroke="none"/>
          <path d="M 250.6840362548828 415.2445373535156 L 251.5575714111328 413.3305969238281 L 249.6403656005859 412.4592590332031 L 248.7667999267578 414.3732604980469 L 250.6840362548828 415.2445373535156 M 251.6744232177734 417.8914489746094 L 246.1155700683594 415.3652648925781 L 248.6500091552734 409.8122863769531 L 254.2087707519531 412.3386535644531 L 251.6744232177734 417.8914489746094 Z" stroke="none" fill="#fff"/>
        </g>
        <g id="Path_153" data-name="Path 153" transform="translate(-198.671 -350.685)" fill="url(#radial-gradient)">
          <path d="M 200.6732635498047 382.5161743164062 L 200.1780853271484 381.6495666503906 L 197.8031158447266 377.4931945800781 L 197.3061065673828 376.6234130859375 L 198.1767730712891 376.1279296875 L 202.3407440185547 373.7583618164062 L 203.2081756591797 373.2647399902344 L 203.7034912109375 374.1312255859375 L 206.0795135498047 378.2877197265625 L 206.5768280029297 379.1576843261719 L 205.7058410644531 379.6531677246094 L 201.5408172607422 382.0226440429688 L 200.6732635498047 382.5161743164062 Z" stroke="none"/>
          <path d="M 201.0463256835938 381.1534423828125 L 205.2113647460938 378.7839965820312 L 202.8353271484375 374.6275024414062 L 198.6713562011719 376.9970703125 L 201.0463256835938 381.1534423828125 M 200.3001861572266 383.87890625 L 195.9408569335938 376.249755859375 L 203.5810241699219 371.9019775390625 L 207.9423065185547 379.5313720703125 L 200.3001861572266 383.87890625 Z" stroke="none" fill="#fff"/>
        </g>
        <g id="Path_154" data-name="Path 154" transform="translate(-208.411 -365.029)" fill="url(#radial-gradient)">
          <path d="M 214.3121185302734 402.0036010742188 L 213.8168487548828 401.1371154785156 L 211.9114990234375 397.8036193847656 L 211.4144897460938 396.9340515136719 L 212.2848052978516 396.4384155273438 L 215.6247863769531 394.5362548828125 L 216.4923095703125 394.0421752929688 L 216.9878082275391 394.9089050292969 L 218.8942413330078 398.2435607910156 L 219.3915863037109 399.1134948730469 L 218.5206298828125 399.6090393066406 L 215.1795806884766 401.5100402832031 L 214.3121185302734 402.0036010742188 Z" stroke="none"/>
          <path d="M 214.6850433349609 400.640869140625 L 218.0261077880859 398.7398681640625 L 216.1196746826172 395.4052124023438 L 212.7796783447266 397.307373046875 L 214.6850433349609 400.640869140625 M 213.939208984375 403.3663330078125 L 210.0492858886719 396.5607604980469 L 216.8649597167969 392.6791687011719 L 220.7570648193359 399.4870910644531 L 213.939208984375 403.3663330078125 Z" stroke="none" fill="#fff"/>
        </g>
        <g id="Path_155" data-name="Path 155" transform="translate(-214.112 -345.793)" fill="url(#radial-gradient)">
          <path d="M 222.5708312988281 374.1408386230469 L 222.0756225585938 373.2741394042969 L 220.1702575683594 369.939453125 L 219.6734466552734 369.0699768066406 L 220.5436401367188 368.5744018554688 L 223.8836212158203 366.6722412109375 L 224.7512817382812 366.1781005859375 L 225.2467193603516 367.0450134277344 L 227.1531524658203 370.3807678222656 L 227.6502838134766 371.2506408691406 L 226.7794952392578 371.74609375 L 223.4384307861328 373.6471557617188 L 222.5708312988281 374.1408386230469 Z" stroke="none"/>
          <path d="M 222.9438781738281 372.7780151367188 L 226.2849426269531 370.876953125 L 224.3785095214844 367.5411987304688 L 221.0385131835938 369.443359375 L 222.9438781738281 372.7780151367188 M 222.1977844238281 375.5036315917969 L 218.3083801269531 368.6965942382812 L 225.1240386962891 364.8150024414062 L 229.0156402587891 371.6242980957031 L 222.1977844238281 375.5036315917969 Z" stroke="none" fill="#fff"/>
        </g>
        <g id="Path_156" data-name="Path 156" transform="translate(-220.059 -358.923)" fill="url(#radial-gradient)">
          <path d="M 230.7637023925781 392.0008544921875 L 230.2682189941406 391.1339111328125 L 228.7840270996094 388.5370483398438 L 228.2868499755859 387.6671447753906 L 229.1576995849609 387.1716613769531 L 231.7588043212891 385.6917419433594 L 232.6263885498047 385.1981201171875 L 233.1215972900391 386.0648193359375 L 234.6047210693359 388.6605834960938 L 235.1014709472656 389.5299987792969 L 234.2313995361328 390.0256042480469 L 231.6313629150391 391.5066223144531 L 230.7637023925781 392.0008544921875 Z" stroke="none"/>
          <path d="M 231.1364135742188 390.6376953125 L 233.7364501953125 389.1566772460938 L 232.2533264160156 386.5609130859375 L 229.6522216796875 388.0408325195312 L 231.1364135742188 390.6376953125 M 230.3909912109375 393.364013671875 L 226.9214782714844 387.29345703125 L 232.9994659423828 383.8353271484375 L 236.4664764404297 389.9032897949219 L 230.3909912109375 393.364013671875 Z" stroke="none" fill="#fff"/>
        </g>
        <g id="Path_157" data-name="Path 157" transform="translate(-227.604 -342.77)" fill="url(#radial-gradient)">
          <path d="M 241.6939392089844 368.6026306152344 L 241.1984405517578 367.7357177734375 L 239.7142028808594 365.1388549804688 L 239.2169952392578 364.2689514160156 L 240.087890625 363.7734680175781 L 242.6890411376953 362.2936096191406 L 243.5566101074219 361.8000183105469 L 244.0518035888672 362.6666870117188 L 245.5349273681641 365.262451171875 L 246.0316772460938 366.1318664550781 L 245.1615905761719 366.6274719238281 L 242.5615844726562 368.1084289550781 L 241.6939392089844 368.6026306152344 Z" stroke="none"/>
          <path d="M 242.066650390625 367.239501953125 L 244.6666564941406 365.758544921875 L 243.1835327148438 363.1627807617188 L 240.5823974609375 364.6426391601562 L 242.066650390625 367.239501953125 M 241.3212432861328 369.9657592773438 L 237.8515930175781 363.895263671875 L 243.9297027587891 360.437255859375 L 247.3967132568359 366.5051879882812 L 241.3212432861328 369.9657592773438 Z" stroke="none" fill="#fff"/>
        </g>
        <g id="Path_158" data-name="Path 158" transform="translate(-225.836 -367.306)" fill="url(#radial-gradient)">
          <path d="M 239.1309356689453 404.1434936523438 L 238.6358184814453 403.2769470214844 L 237.1526947021484 400.6811828613281 L 236.65576171875 399.8114624023438 L 237.5263366699219 399.3159790039062 L 240.1285247802734 397.8349609375 L 240.9963226318359 397.341064453125 L 241.4915313720703 398.2081298828125 L 242.9746551513672 400.8049926757812 L 243.4714965820312 401.6749267578125 L 242.6006469726562 402.1701965332031 L 239.9984436035156 403.6501159667969 L 239.1309356689453 404.1434936523438 Z" stroke="none"/>
          <path d="M 239.5040893554688 402.7808532714844 L 242.1062927246094 401.3009338378906 L 240.6231689453125 398.7040710449219 L 238.0209655761719 400.1850891113281 L 239.5040893554688 402.7808532714844 M 238.7577667236328 405.5061340332031 L 235.2905731201172 399.4378356933594 L 241.3694915771484 395.9780578613281 L 244.8366851806641 402.0489196777344 L 238.7577667236328 405.5061340332031 Z" stroke="none" fill="#fff"/>
        </g>
        <g id="Path_159" data-name="Path 159" transform="translate(-230.008 -353.238)" fill="url(#radial-gradient)">
          <path d="M 245.1739196777344 383.7655029296875 L 244.6787261962891 382.8988342285156 L 243.1955718994141 380.3030700683594 L 242.6986846923828 379.4334716796875 L 243.5690765380859 378.9379577636719 L 246.1702270507812 377.4570617675781 L 247.0380706787109 376.9629821777344 L 247.5333404541016 377.8301391601562 L 249.0164642333984 380.4269409179688 L 249.5132446289062 381.2967224121094 L 248.6426086425781 381.7920532226562 L 246.0414886474609 383.2719116210938 L 245.1739196777344 383.7655029296875 Z" stroke="none"/>
          <path d="M 245.5469818115234 382.4027404785156 L 248.1481170654297 380.9228820800781 L 246.6649932861328 378.3260803222656 L 244.0638275146484 379.8069763183594 L 245.5469818115234 382.4027404785156 M 244.8008270263672 385.1282653808594 L 241.3335571289062 379.0599670410156 L 247.4111633300781 375.599853515625 L 250.8783569335938 381.6705932617188 L 244.8008270263672 385.1282653808594 Z" stroke="none" fill="#fff"/>
        </g>
        <g id="Path_160" data-name="Path 160" transform="translate(-234.508 -363.552)" fill="url(#radial-gradient-25)">
          <path d="M 251.2535858154297 397.4961242675781 L 250.7583160400391 396.6293029785156 L 249.7146148681641 394.8025817871094 L 249.2174682617188 393.9324340820312 L 250.0886383056641 393.4371643066406 L 251.9186401367188 392.3967590332031 L 252.785888671875 391.9037170410156 L 253.2810211181641 392.769775390625 L 254.3246917724609 394.5953369140625 L 254.8219604492188 395.4651184082031 L 253.9512023925781 395.9607238769531 L 252.1212463378906 397.0022888183594 L 251.2535858154297 397.4961242675781 Z" stroke="none"/>
          <path d="M 251.6265869140625 396.1332092285156 L 253.45654296875 395.0916442871094 L 252.4128723144531 393.2660827636719 L 250.5828857421875 394.3064880371094 L 251.6265869140625 396.1332092285156 M 250.8805847167969 398.8590698242188 L 247.85205078125 393.5584106445312 L 253.1589050292969 390.5413208007812 L 256.1873474121094 395.838623046875 L 250.8805847167969 398.8590698242188 Z" stroke="none" fill="#fff"/>
        </g>
        <g id="Path_161" data-name="Path 161" transform="translate(-240.582 -352.043)" fill="url(#radial-gradient-81)">
          <path d="M 260.0520324707031 380.8239440917969 L 259.5568237304688 379.9576721191406 L 258.5131530761719 378.1321105957031 L 258.0157470703125 377.2621154785156 L 258.8868408203125 376.7666015625 L 260.7178649902344 375.7250366210938 L 261.5852355957031 375.2316284179688 L 262.0804748535156 376.0979614257812 L 263.1241149902344 377.923583984375 L 263.6214599609375 378.7935791015625 L 262.7503967285156 379.2890930175781 L 260.9193725585938 380.33056640625 L 260.0520324707031 380.8239440917969 Z" stroke="none"/>
          <path d="M 260.4249572753906 379.4613647460938 L 262.2559509277344 378.4198608398438 L 261.2123107910156 376.59423828125 L 259.3812866210938 377.6358032226562 L 260.4249572753906 379.4613647460938 M 259.6791381835938 382.1864929199219 L 256.6502380371094 376.8883972167969 L 261.9581604003906 373.8690490722656 L 264.9869689941406 379.1673278808594 L 259.6791381835938 382.1864929199219 Z" stroke="none" fill="#fff"/>
        </g>
        <g id="Rectangle_39" data-name="Rectangle 39" transform="translate(12.311 12.162) rotate(-83.898)" stroke="#fff" stroke-width="2" fill="url(#radial-gradient-82)">
          <rect width="4.785" height="4.793" stroke="none"/>
          <rect x="-1" y="-1" width="6.785" height="6.793" fill="none"/>
        </g>
        <g id="Rectangle_40" data-name="Rectangle 40" transform="matrix(0.106, -0.994, 0.994, 0.106, 12.456, 18.609)" stroke="#fff" stroke-width="2" fill="url(#radial-gradient-83)">
          <rect width="3.838" height="3.847" stroke="none"/>
          <rect x="-1" y="-1" width="5.838" height="5.847" fill="none"/>
        </g>
        <g id="Rectangle_41" data-name="Rectangle 41" transform="matrix(0.106, -0.994, 0.994, 0.106, 19.588, 13.106)" stroke="#fff" stroke-width="2" fill="url(#radial-gradient-84)">
          <rect width="3.838" height="3.846" stroke="none"/>
          <rect x="-1" y="-1" width="5.838" height="5.846" fill="none"/>
        </g>
        <g id="Rectangle_42" data-name="Rectangle 42" transform="translate(18.637 18.253) rotate(-83.889)" stroke="#fff" stroke-width="2" fill="url(#radial-gradient-85)">
          <rect width="2.989" height="2.995" stroke="none"/>
          <rect x="-1" y="-1" width="4.989" height="4.995" fill="none"/>
        </g>
        <g id="Rectangle_43" data-name="Rectangle 43" transform="translate(25.629 14.354) rotate(-83.908)" stroke="#fff" stroke-width="2" fill="url(#radial-gradient-86)">
          <rect width="2.989" height="2.994" stroke="none"/>
          <rect x="-1" y="-1" width="4.989" height="4.994" fill="none"/>
        </g>
        <g id="Rectangle_44" data-name="Rectangle 44" transform="translate(18.533 22.816) rotate(-83.887)" stroke="#fff" stroke-width="2" fill="url(#radial-gradient-87)">
          <rect width="2.989" height="2.995" stroke="none"/>
          <rect x="-1" y="-1" width="4.989" height="4.995" fill="none"/>
        </g>
        <g id="Rectangle_45" data-name="Rectangle 45" transform="translate(23.75 18.791) rotate(-83.887)" stroke="#fff" stroke-width="2" fill="url(#radial-gradient-88)">
          <rect width="2.989" height="2.994" stroke="none"/>
          <rect x="-1" y="-1" width="4.989" height="4.994" fill="none"/>
        </g>
        <g id="Rectangle_46" data-name="Rectangle 46" transform="translate(23.027 22.484) rotate(-83.892)" stroke="#fff" stroke-width="2" fill="url(#radial-gradient-89)">
          <rect width="2.102" height="2.106" stroke="none"/>
          <rect x="-1" y="-1" width="4.102" height="4.106" fill="none"/>
        </g>
        <g id="Rectangle_47" data-name="Rectangle 47" transform="translate(28.264 19.889) rotate(-83.928)" stroke="#fff" stroke-width="2" fill="url(#radial-gradient-90)">
          <rect width="2.102" height="2.107" stroke="none"/>
          <rect x="-1" y="-1" width="4.102" height="4.107" fill="none"/>
        </g>
      </g>
      <g id="Group_8" data-name="Group 8" transform="translate(0 2.366)">
        <path id="Path_162" data-name="Path 162" d="M277.184,304.95l-42.267,95.034h-48.1l-24.941-47.517h31.348l16.567,32.419,36.556-79.937Z" transform="translate(-161.875 -304.95)" fill="url(#radial-gradient-91)"/>
      </g>
      <g id="Group_10" data-name="Group 10" transform="translate(0 49.884)">
        <g id="Group_9" data-name="Group 9">
          <path id="Path_163" data-name="Path 163" d="M161.875,458.4h31.348l16.567,32.419-6.671,15.1h-16.3" transform="translate(-161.875 -458.402)" fill="#5a7076"/>
        </g>
      </g>
      <g id="Group_11" data-name="Group 11" transform="translate(41.244 78.015)">
        <path id="Path_164" data-name="Path 164" d="M299.548,549.249l2.191,4.288-6.671,15.1" transform="translate(-295.068 -549.249)" fill="url(#linear-gradient)"/>
      </g>
      <circle id="Ellipse_5" data-name="Ellipse 5" cx="10.495" cy="10.495" r="10.495" transform="translate(36.762 26.289)" fill="url(#radial-gradient-92)"/>
    </g>
  </g>
</svg>
