<svg xmlns="http://www.w3.org/2000/svg" xmlns:xlink="http://www.w3.org/1999/xlink" width="98" height="98" viewBox="0 0 98 98">
  <defs>
    <filter id="Ellipse_16" x="0" y="0" width="98" height="98" filterUnits="userSpaceOnUse">
      <feOffset dy="3" input="SourceAlpha"/>
      <feGaussianBlur stdDeviation="3" result="blur"/>
      <feFlood flood-opacity="0.161"/>
      <feComposite operator="in" in2="blur"/>
      <feComposite in="SourceGraphic"/>
    </filter>
  </defs>
  <g id="Group_225" data-name="Group 225" transform="translate(-1730 -934)">
    <g transform="matrix(1, 0, 0, 1, 1730, 934)" filter="url(#Ellipse_16)">
      <circle id="Ellipse_16-2" data-name="Ellipse 16" cx="40" cy="40" r="40" transform="translate(9 6)" fill="#73be44"/>
    </g>
    <g id="Group_224" data-name="Group 224" transform="translate(1761.508 966.42)">
      <path id="Path_368" data-name="Path 368" d="M8.529.53a7.992,7.992,0,0,0-7.983,8L.53,19.583a7.957,7.957,0,0,0,7.406,7.942v6.906a.576.576,0,0,0,.982.406l7.239-7.254h10.87a7.986,7.986,0,0,0,7.981-8V8.531a7.97,7.97,0,0,0-7.964-8Zm3.49,11.8A1.724,1.724,0,1,1,10.3,14.058a1.733,1.733,0,0,1,1.722-1.724Zm5.747,0a1.724,1.724,0,1,1-1.724,1.724A1.732,1.732,0,0,1,17.765,12.334Zm5.747,0a1.724,1.724,0,1,1-1.724,1.724A1.734,1.734,0,0,1,23.512,12.334Z" transform="translate(-0.53 -0.528)" fill="#fff"/>
    </g>
  </g>
</svg>
