<svg xmlns="http://www.w3.org/2000/svg" width="50" height="50" viewBox="0 0 50 50">
  <g id="Group_33" data-name="Group 33" transform="translate(-6.74 -8.058)">
    <path id="Path_135" data-name="Path 135" d="M31.74,8.058a25,25,0,1,0,25,25A25.017,25.017,0,0,0,31.74,8.058ZM46.706,41.139c-.171.415-.977,1-3.809,1.441-.244.048-.317.341-.464.977a7.018,7.018,0,0,1-.171.683.4.4,0,0,1-.415.317h-.025a2.482,2.482,0,0,1-.635-.1,10.619,10.619,0,0,0-1.709-.171,7.058,7.058,0,0,0-1.221.1,6.123,6.123,0,0,0-2.344,1.2,6.553,6.553,0,0,1-4.028,1.587H31.5a6.552,6.552,0,0,1-4.028-1.587,5.957,5.957,0,0,0-2.344-1.2,7.058,7.058,0,0,0-1.221-.1,8.936,8.936,0,0,0-1.709.2,3.659,3.659,0,0,1-.635.1.4.4,0,0,1-.439-.317c-.073-.244-.122-.488-.171-.708-.122-.586-.22-.928-.464-.977-2.832-.44-3.638-1.026-3.809-1.441a.574.574,0,0,1-.049-.2.314.314,0,0,1,.269-.317c4.346-.732,6.3-5.176,6.372-5.371h.025a1.617,1.617,0,0,0,.146-1.392c-.293-.708-1.27-1.026-1.9-1.221A4.6,4.6,0,0,1,21.1,32.5C19.8,31.984,19.7,31.471,19.753,31.2a1.22,1.22,0,0,1,1.2-.781.778.778,0,0,1,.342.074,3.833,3.833,0,0,0,1.538.414,1.285,1.285,0,0,0,.928-.292c0-.293-.024-.61-.049-.928-.122-2.05-.293-4.614.366-6.079a7.868,7.868,0,0,1,7.3-4.712h.61a7.9,7.9,0,0,1,7.324,4.712c.659,1.465.488,4.028.366,6.079v.1c-.024.268-.049.561-.049.83a1.225,1.225,0,0,0,.83.292,4.188,4.188,0,0,0,1.465-.414,1.206,1.206,0,0,1,.464-.1,1.22,1.22,0,0,1,.513.122h.024a.948.948,0,0,1,.708.781c.024.293-.22.757-1.343,1.2-.122.049-.269.1-.415.147-.659.2-1.636.512-1.929,1.221a1.617,1.617,0,0,0,.146,1.392h.024c.073.2,2.026,4.639,6.372,5.371a.314.314,0,0,1,.269.317.572.572,0,0,1-.049.2Z" fill="#fff" fill-rule="evenodd"/>
  </g>
</svg>
