<svg id="Group_228" data-name="Group 228" xmlns="http://www.w3.org/2000/svg" width="80" height="80" viewBox="0 0 80 80">
  <circle id="Ellipse_18" data-name="Ellipse 18" cx="40" cy="40" r="40" fill="#ffc91b"/>
  <path id="Path_371" data-name="Path 371" d="M146,137.923a3.473,3.473,0,0,1-1.445,2.786,6.2,6.2,0,0,1-1.764.909,22.173,22.173,0,0,1-3.036.723,7.091,7.091,0,0,1-.218,1.077,3.778,3.778,0,0,1-2.159,2.536,4.852,4.852,0,0,1-1.886.323c-.455,0-.959-.036-1.482-.073s-1.141-.086-1.718-.086a5,5,0,0,0-2.018.323c-.645.3-1.336.7-2.064,1.127-2.023,1.191-4.314,2.555-7.209,2.555s-5.186-1.364-7.209-2.541c-.727-.423-1.418-.827-2.064-1.127a5,5,0,0,0-2.018-.323c-.577,0-1.155.041-1.718.086s-1.018.073-1.482.073a4.859,4.859,0,0,1-1.886-.323,3.768,3.768,0,0,1-2.159-2.536,7.088,7.088,0,0,1-.218-1.077,22.027,22.027,0,0,1-3.036-.723,6.2,6.2,0,0,1-1.764-.909,3.473,3.473,0,0,1-1.445-2.8,3.1,3.1,0,0,1,1.855-2.8,10.215,10.215,0,0,1,1.364-.509c1.936-.623,4.8-1.536,6.327-6.309l-2.323-.909a4.223,4.223,0,0,1-2.65-4.868,3.809,3.809,0,0,1,1.364-2.182,3.877,3.877,0,0,1,2.364-.814,3.836,3.836,0,0,1,.882.1l.782.182c.036-.909.055-1.868.055-2.85a14.824,14.824,0,0,1,1.2-5.8,15.191,15.191,0,0,1,7.964-8,14.678,14.678,0,0,1,11.6,0,15.273,15.273,0,0,1,7.977,7.977,14.768,14.768,0,0,1,1.2,5.8c0,.982,0,1.936.055,2.85l.782-.182a3.845,3.845,0,0,1,4.632,2.891,4.223,4.223,0,0,1-2.65,4.9l-2.323.909c1.55,4.764,4.409,5.673,6.336,6.286a10.47,10.47,0,0,1,1.364.509A3.091,3.091,0,0,1,146,137.923Z" transform="translate(-81.002 -86.033)" fill="#fff"/>
</svg>
