<svg xmlns="http://www.w3.org/2000/svg" width="1920" height="806" viewBox="0 0 1920 806">
  <g id="Group_236" data-name="Group 236" transform="translate(0.629 -4248)">
    <rect id="Rectangle_53" data-name="Rectangle 53" width="1920" height="806" transform="translate(-0.629 4248)" fill="#f3f3f3"/>
    <g id="Group_193" data-name="Group 193" transform="translate(1540.174 4387.298)">
      <path id="Path_358" data-name="Path 358" d="M23.914,59.976A28.018,28.018,0,1,1,57.281,32.47c0,20.607-6.942,33.406-15.091,41.406a48.792,48.792,0,0,1-28.1,13.314,4.107,4.107,0,0,1-3.647-6.482S17.871,70.258,22.5,62.526c.483-.812.971-1.705,1.415-2.55Zm61.865,0A28.018,28.018,0,1,1,119.146,32.47c0,20.607-6.942,33.406-15.091,41.406a48.792,48.792,0,0,1-28.1,13.314,4.107,4.107,0,0,1-3.647-6.482s7.425-10.452,12.053-18.183C84.847,61.714,85.335,60.82,85.779,59.976Z" fill="#c4c4c4" fill-rule="evenodd"/>
    </g>
    <g id="Group_194" data-name="Group 194" transform="translate(261.052 4869.627)">
      <path id="Path_358-2" data-name="Path 358" d="M96.483,31.681A28.018,28.018,0,1,1,63.116,59.187c0-20.607,6.942-33.406,15.091-41.406A48.792,48.792,0,0,1,106.3,4.466a4.107,4.107,0,0,1,3.647,6.482S102.526,21.4,97.9,29.131c-.483.812-.971,1.705-1.415,2.55Zm-61.865,0A28.018,28.018,0,1,1,1.25,59.187c0-20.607,6.942-33.406,15.091-41.406a48.792,48.792,0,0,1,28.1-13.314,4.107,4.107,0,0,1,3.647,6.482S40.66,21.4,36.032,29.131C35.55,29.943,35.062,30.837,34.617,31.681Z" transform="translate(-1.25 -4.455)" fill="#c4c4c4" fill-rule="evenodd"/>
    </g>
  </g>
</svg>
