<svg xmlns="http://www.w3.org/2000/svg" width="81" height="80.998" viewBox="0 0 81 80.998">
  <g id="Group_229" data-name="Group 229" transform="translate(0.5 0.5)">
    <path id="Path_372" data-name="Path 372" d="M80,40A40,40,0,0,1,40,80h-.075a40,40,0,0,1,0-80H40A40,40,0,0,1,80,40Z" stroke="#707070" stroke-width="1"/>
    <path id="Path_373" data-name="Path 373" d="M39.924,0V80a40,40,0,0,1,0-80Z" fill="#0c0c0c"/>
    <path id="Path_374" data-name="Path 374" d="M148.447,99.924l-.049,8.195a19.75,19.75,0,0,1-4.731-.635,20.012,20.012,0,0,1-6.633-3.121c0,.838.012,2.088.012,3.607,0,2.023,0,3.172-.012,4.392-.035,7.538.152,9-.511,11.977a15.539,15.539,0,0,1-.564,2.119,15.028,15.028,0,0,1-6.878,7.9,13.694,13.694,0,0,1-2.474,1.019c-5.346,1.62-11.77.2-15.086-3.745l-.022-.024-.026-.034c-2.817-3.4-3.432-8.7-3.491-10.053,0-.173-.012-.343-.012-.343a16.633,16.633,0,0,1,.789-5.464,14.412,14.412,0,0,1,6.683-7.95,14.615,14.615,0,0,1,8.622-1.65l-.1,8.293c-.168-.043-4.219-1-6.878,1.756a7.1,7.1,0,0,0-.544,8.808c.091.122.187.24.288.351a6.583,6.583,0,0,0,2.986,1.747,9.886,9.886,0,0,0,3.365.493,6.17,6.17,0,0,0,3.418-1.1,7.967,7.967,0,0,0,3.168-5.443q-.051-16.239-.1-32.479v-.01l5.21-.093h.085l.755-.014a15.93,15.93,0,0,0,2.778,5.52,15.431,15.431,0,0,0,1.3,1.459,16.738,16.738,0,0,0,6.17,3.812h.016a17.886,17.886,0,0,0,2.458.7Z" transform="translate(-86.684 -70.998)" fill="#fd2854"/>
    <path id="Path_375" data-name="Path 375" d="M132.112,95.411H132.1a18.08,18.08,0,0,1-8.384-.637,17.85,17.85,0,0,1-5.248-2.738,53.141,53.141,0,0,1,0,17.347c-1.126,6.75-1.831,10.98-5.6,13.687-.079.057-.16.114-.24.168-5.2,3.523-12.47,1.774-15.133.116l-.039-.024-.075-.047a17.453,17.453,0,0,1-2.46-1.971,14.353,14.353,0,0,1-4.358-10.146,15.376,15.376,0,0,1,.96-5.758,14.621,14.621,0,0,1,16.326-9.582q-.02.986-.037,1.971v.014l-.077,4.159a12.576,12.576,0,0,0-4.394-.244,7.954,7.954,0,0,0-3.574,1.057,7.17,7.17,0,0,0-3.111,4.439,5.975,5.975,0,0,0-.158,2.732,6.2,6.2,0,0,0,1.853,3.365c.491.436.7.453,1.415,1.122.631.591.789.875,1.366,1.366,0,0,.142.12.375.29a.421.421,0,0,0,.047.035,8.455,8.455,0,0,0,1,.629,7.3,7.3,0,0,0,5.928-.083,7.463,7.463,0,0,0,4.049-5.951q-.047-16.245-.1-32.488h.181l8.047-.047a6.371,6.371,0,0,0,.258,1.855c.02.065.039.126.061.2s.035.1.053.154a8.873,8.873,0,0,0,.432.958l.112.227V81.6a.024.024,0,0,0,0,.016l.018.037.018.035a.746.746,0,0,0,.035.067c.012.026.026.051.039.077.075.144.177.333.294.546.073.132.15.264.229.394l.085.14c.041.071.085.142.128.211l.158.25a15.632,15.632,0,0,0,3.215,3.83,11.517,11.517,0,0,0,6.154,2.366c.01.485.022.97.032,1.455Q132.066,93.219,132.112,95.411Z" transform="translate(-72.703 -62.777)" fill="#24f6fa"/>
    <path id="Path_376" data-name="Path 376" d="M142.585,106.053a17.582,17.582,0,0,1-11.286-3.574v17.347c-.039.664-.621,7.992-7.24,12.025q-.491.3-.986.55a15.993,15.993,0,0,1-12.914.43,8.071,8.071,0,0,1-1.707-.789c-.168-.1-.331-.213-.487-.325l-.14-.1c-4.061-3.083-4.228-9.364-4.254-10.29a16.634,16.634,0,0,1,.789-5.464,14.432,14.432,0,0,1,6.683-7.95,14.6,14.6,0,0,1,7.221-1.774v.014l-.1,6.251a7,7,0,0,0-8.672,5.269,6.393,6.393,0,0,0-.158,2.73,6.241,6.241,0,0,0,1.534,3.008,7.188,7.188,0,0,0,1.09,1.019.426.426,0,0,0,.047.035,6.191,6.191,0,0,0,1,.629l.012.01a6.186,6.186,0,0,0,6.639,2.59,7.367,7.367,0,0,0,1.67-.564,6.609,6.609,0,0,0,1.749-1.21,8.241,8.241,0,0,0,2.3-4.731l-.087-32.5.867-.018,5.21-.1h.075q.229.564.495,1.112l.112.227v.018a.024.024,0,0,0,0,.016l.018.037.018.035a.745.745,0,0,0,.035.067c.012.026.026.051.039.077.091.177.2.361.294.546.073.132.15.264.229.394l.085.14.128.211.158.25a19.3,19.3,0,0,0,9.385,7.643h.016c.026,1.461.051,2.925.075,4.386Z" transform="translate(-83.151 -71.102)" fill="#fff"/>
    <path id="Path_377" data-name="Path 377" d="M224.37,91.7,224.32,99.9a19.75,19.75,0,0,1-4.731-.635,20.012,20.012,0,0,1-6.633-3.121c0,.838.012,2.088.012,3.607,0,2.023,0,3.172-.012,4.392-.035,7.538.152,9-.511,11.977a15.539,15.539,0,0,1-.564,2.119,15.028,15.028,0,0,1-6.878,7.9,13.694,13.694,0,0,1-2.474,1.019V78.237l8.047-.047a6.371,6.371,0,0,0,.258,1.855c.02.065.039.126.061.2l.755-.014a15.93,15.93,0,0,0,2.778,5.52,15.433,15.433,0,0,0,1.3,1.459,11.517,11.517,0,0,0,6.154,2.366c.01.485.022.97.032,1.455a17.889,17.889,0,0,0,2.454.676Z" transform="translate(-162.606 -62.777)" fill="rgba(0,0,0,0.09)"/>
  </g>
</svg>
