<svg id="Group_36" data-name="Group 36" xmlns="http://www.w3.org/2000/svg" width="50" height="50" viewBox="0 0 50 50">
  <g id="Layer_2" data-name="Layer 2">
    <path id="_77.TikTok" data-name="77.TikTok" d="M25,0A25,25,0,1,0,50,25,25,25,0,0,0,25,0ZM36.27,22.214c-2.23.247-4.141-.635-6.053-1.76,0,.184.056,5.895-.039,8.618a9.28,9.28,0,0,1-3.289,7.1A7.805,7.805,0,0,1,14.059,32,8.046,8.046,0,0,1,16.5,23.5a8.987,8.987,0,0,1,5.112-2.145c.408-.053.819-.076,1.26-.115v4.421c-.559.138-1.125.26-1.681.424a7.566,7.566,0,0,0-1.125.424A3.618,3.618,0,0,0,18.75,32.1a3.947,3.947,0,0,0,3.773,1.592,3.481,3.481,0,0,0,2.872-2.378,8.224,8.224,0,0,0,.47-3.211c-.02-5.368-.02-10.734-.03-16.1a1.479,1.479,0,0,1,.023-.164h4.293c.48,3.592,2.3,5.868,6.118,6.191Z" fill="#fff"/>
  </g>
</svg>
