<svg id="Group_35" data-name="Group 35" xmlns="http://www.w3.org/2000/svg" width="50" height="50" viewBox="0 0 50 50">
  <path id="Path_138" data-name="Path 138" d="M25,0A25,25,0,1,0,50,25,25.028,25.028,0,0,0,25,0ZM36.153,19.278c.011.248.017.5.017.747,0,7.6-5.786,16.369-16.373,16.369a16.276,16.276,0,0,1-8.82-2.583A11.619,11.619,0,0,0,19.5,31.429a5.76,5.76,0,0,1-5.375-4,5.8,5.8,0,0,0,2.6-.1A5.755,5.755,0,0,1,12.1,21.693V21.62a5.73,5.73,0,0,0,2.605.719,5.763,5.763,0,0,1-1.78-7.682,16.339,16.339,0,0,0,11.86,6.014,5.757,5.757,0,0,1,9.805-5.25,11.486,11.486,0,0,0,3.655-1.4,5.78,5.78,0,0,1-2.534,3.184,11.44,11.44,0,0,0,3.305-.905,11.574,11.574,0,0,1-2.868,2.975Z" fill="#fff"/>
</svg>
