<svg id="Group_227" data-name="Group 227" xmlns="http://www.w3.org/2000/svg" width="80" height="80" viewBox="0 0 80 80">
  <g id="Layer_2" data-name="Layer 2">
    <g id="_08.whatsapp" data-name="08.whatsapp">
      <circle id="Ellipse_17" data-name="Ellipse 17" cx="40" cy="40" r="40" fill="#2aa81a"/>
      <g id="Group_226" data-name="Group 226" transform="translate(20.157 19.998)">
        <path id="Path_369" data-name="Path 369" d="M72.252,43.888A19.842,19.842,0,0,0,40.463,66.846L38.357,77.067a.747.747,0,0,0,.121.595.763.763,0,0,0,.811.316l10-2.374A19.842,19.842,0,0,0,72.236,43.888ZM69.126,68.82a15.558,15.558,0,0,1-17.895,2.932l-1.4-.695-6.142,1.453V72.43l1.295-6.195L44.3,64.888A15.535,15.535,0,0,1,69.126,46.851l.068.095a15.537,15.537,0,0,1-.079,21.884Z" transform="translate(-38.299 -37.997)" fill="#fff"/>
        <path id="Path_370" data-name="Path 370" d="M77.435,73.59A6.486,6.486,0,0,1,74,76.585c-2.632.632-6.637,0-11.653-4.637l-.063-.058c-4.363-4.074-5.521-7.468-5.263-10.158a6.438,6.438,0,0,1,2.5-3.816,1.432,1.432,0,0,1,2.237.526L63.372,62.1a1.421,1.421,0,0,1-.174,1.453L62.377,64.6a1.4,1.4,0,0,0-.111,1.553,15.263,15.263,0,0,0,2.774,3.084,16.4,16.4,0,0,0,3.842,2.753,1.4,1.4,0,0,0,1.521-.321l.942-.958a1.426,1.426,0,0,1,1.437-.4l3.842,1.1a1.442,1.442,0,0,1,.811,2.179Z" transform="translate(-47.15 -47.273)" fill="#fff"/>
      </g>
    </g>
  </g>
</svg>
